<?xml version="1.0" encoding="utf-8"?>
<!-- Generator: Adobe Illustrator 27.5.0, SVG Export Plug-In . SVG Version: 6.00 Build 0)  -->
<svg version="1.1" id="Layer_1" xmlns="http://www.w3.org/2000/svg" xmlns:xlink="http://www.w3.org/1999/xlink" x="0px" y="0px"
	 viewBox="0 0 3838.5 1991.1" style="enable-background:new 0 0 3838.5 1991.1;" xml:space="preserve">
<style type="text/css">
	.st0{fill:#7BE9EF;}
	.st1{fill:#F3C22D;}
	.st2{fill:#F5CA48;}
</style>
<path class="st0" d="M3842.2,1358.3c0,0-1045-135.8-1311.2-58.6c-266.2,77.2-499.3,694.5-499.3,694.5l-312-8.7
	c0,0,335.5-702.8,639.9-834.1s1483.4-6.6,1483.4-6.6L3842.2,1358.3z"/>
<path class="st0" d="M3150.6,372.6c242.8,133.7,689.8-78.1,689.8-78.1v282.4c0,0-365.4,144.1-673.5,21.6S2522.4,0.3,2522.4,0.3
	l253-5.9C2775.4-5.6,2907.8,238.9,3150.6,372.6z"/>
<g>
	<path class="st1" d="M467.3-7.7c0,0,172.3,369.3,465,618.1c155.3,132,344.4,230.1,559.7,221.3c621.3-25.4,567.8-833.9,567.8-833.9
		h295c0,0-183.6,1028.9-874,1019.3C790.5,1007.6,175.8,3.1,175.8,3.1L467.3-7.7z"/>
	<g>
		<path class="st2" d="M1136.9,1006.7c-1.2-0.5-2.2-0.9-3.2-1.4C1134.9,1006,1136.1,1006.6,1136.9,1006.7z"/>
		<path class="st2" d="M1240.7,1040.3c-0.2-0.1-0.3-0.1-0.5-0.2C1237.4,1039.7,1239,1040.1,1240.7,1040.3z"/>
		<path class="st2" d="M2148.1,784.3c-3.9,4.3-1.9,0-0.5-3.7c1.4-3.7,2.5-6.8-2.9,0c0.8-0.5-0.4,3.4-0.9,5.8
			C2143.3,788.8,2143.8,790,2148.1,784.3L2148.1,784.3z"/>
		<path class="st2" d="M2144.7,780.6L2144.7,780.6l-1.1,1.4C2144.1,781.4,2144.3,781.1,2144.7,780.6L2144.7,780.6z"/>
		<path class="st2" d="M1489.8,1070.5c-0.5-0.4-1.5-0.7-2.5-1.1C1487.3,1069.7,1487.9,1070,1489.8,1070.5z"/>
		<path class="st2" d="M1304.3,1048.9l4.5,1.1C1307.1,1049.5,1305.6,1049.2,1304.3,1048.9z"/>
		<path class="st2" d="M1586.7,1066.4c2.5,0,3.4,0.3,6.8-0.2c-0.3-0.1-0.6-0.2-1.1-0.2C1591.2,1066.4,1589.5,1066.6,1586.7,1066.4z"
			/>
		<path class="st2" d="M1687.1,1056.9c-0.6-0.1-1.3-0.1-1.9-0.2c-1,0.2-2.1,0.4-3.2,0.5C1683.7,1057.2,1685.4,1057.1,1687.1,1056.9
			L1687.1,1056.9z"/>
		<path class="st2" d="M1249.8,820.1c-2-1.1-3.2-2.1-4.1-3c0.6,0.9-2.8,0.8-4.1,0.8C1240.2,817.9,1241,818.3,1249.8,820.1
			L1249.8,820.1z"/>
		<path class="st2" d="M1589.8,1048.5c5.3-0.2,10.5-0.2,15.8-0.6c-2.2,0-4.7,0.2-7.4,0.2C1595.5,1048.2,1592.6,1048.3,1589.8,1048.5
			z"/>
		<path class="st2" d="M1922,665.8c-0.4,1.2-0.9,2.4-1.3,3.6C1921.4,668.1,1921.9,666.8,1922,665.8z"/>
		<path class="st2" d="M1652.2,1043.5c1.4,0.2,2.9,0.4,4.4,0.5c1.5,0.1,3,0.1,4.6,0c0.6-0.3,1.3-0.5,1.8-0.8l-5.4,0.2
			C1655.8,1043.5,1654,1043.4,1652.2,1043.5L1652.2,1043.5z"/>
		<path class="st2" d="M1245.6,817.1L1245.6,817.1C1245.7,817.2,1245.7,817.1,1245.6,817.1z"/>
		<path class="st2" d="M1495.6,837.6L1495.6,837.6c-3.1,0.2-5.7,0.3-7.3,0.3C1489.7,837.9,1491.9,837.8,1495.6,837.6L1495.6,837.6z
			 M1525.5,836.5c-3.7,0.1-8.2,0.3-13,0.5c-1.1-0.7,0-1.6,3-1.6C1513.9,835.9,1521,836,1525.5,836.5z M1462.2,822.4
			c4.7-0.3,6.2,0.1,6.9,0.6c-2.2,0.1-4.8,0.1-8.2,0.3c-0.1,0.1-0.4,0.2-0.6,0.3C1460.8,823.1,1461.3,822.7,1462.2,822.4
			L1462.2,822.4z"/>
		<path class="st2" d="M1453.7,825.3c-0.7,0-1.1,0.1-1.9,0.2c1,0.2,1.9,0.4,2.8,0.5c0.6-0.2,1.2-0.5,1.7-0.7
			C1455.4,825.3,1454.5,825.3,1453.7,825.3L1453.7,825.3z"/>
		<polygon class="st2" points="1906.6,697.2 1906.1,696.9 1905,699.4 		"/>
		<path class="st2" d="M1303.3,1033.5c0.7,0.1,1.4,0.2,2.1,0.2C1310.3,1034.1,1307,1033.7,1303.3,1033.5z"/>
		<path class="st2" d="M1588.1,1048.5C1588.1,1048.5,1588.1,1048.5,1588.1,1048.5c0.6,0,1.1,0,1.7,0L1588.1,1048.5L1588.1,1048.5z"
			/>
		<path class="st2" d="M1669.5,1061.2l-2.6-2.2C1661.9,1060.1,1661.1,1063.1,1669.5,1061.2z"/>
		<path class="st2" d="M1953.9,967.7c1.7-0.3,4.5-1.4,7.4-2.8c2.8-1.5,5.8-3.3,7.6-5.2c-2.9,1.8-6,3.2-8.7,4.5
			C1957.6,965.5,1955.3,966.7,1953.9,967.7L1953.9,967.7z"/>
		<path class="st2" d="M1915.5,616.7c-0.1-1.9-0.1-3.8-0.2-5.7c-0.1,3.6-0.3,7.1-0.7,10.7C1914.9,619.9,1915.3,618.3,1915.5,616.7
			L1915.5,616.7z"/>
	</g>
</g>
<path class="st0" d="M829.9,9.1l257.7-0.9c470.9,587,184.6,1238.3-286.7,1986H402.3C939.3,1260.5,1300.9,604.8,829.9,9.1z"/>
<path class="st1" d="M2918.2,1014.4c16.6,520.9,364.3,977,449.9,978.9c-58.2-5.3-428.3,3.6-428.3,3.6s-126-345.5-179.9-899.7
	S2971.7,0,2961.4-0.5l187.1-3.6C3148.5-4.1,2901.6,493.5,2918.2,1014.4z"/>
<path class="st1" d="M5.1,1199.5l-5.4-359c-7.5,7.1,221,37.3,541.2,493s248.3,658.5,248.3,658.5s-246.4,4.1-294.2,0
	c2.3,0,35.2-283.4-125.6-540.6S5.1,1199.5,5.1,1199.5z"/>
</svg>
