<?xml version="1.0" encoding="UTF-8"?><svg xmlns="http://www.w3.org/2000/svg" viewBox="0 0 3838.5 975"><defs><style>.cls-1{fill:#f3c22d;}.cls-2{fill:#f5ca48;}.cls-3{fill:#7be9ef;}.cls-4{fill:#8cecf1;}.cls-5{mix-blend-mode:multiply;}.cls-6{isolation:isolate;}</style></defs><g class="cls-6"><g id="pattern"><g class="cls-5"><path class="cls-3" d="M3838.5,543.87s-1153.97-132.52-1420.19-55.32c-266.22,77.2-513.88,488.55-513.88,488.55l-311.39-9.53s349.46-496.02,653.92-627.28c304.46-131.26,1591.54,0,1591.54,0v203.58Z"/><g><path class="cls-4" d="M3833.17,543.87c.69,2.72,2.25,1.18,1.94-6.32l-2.65-5.33,.71,11.65Z"/><path class="cls-4" d="M3838.08,493.35c-1.28-8.83-3.54-19.01-5.97-13.29,2.54,8.74,1.48,10.86,4.51,20.27,.31,7.52-.85,13.11-1.82,11.85,.68,2.66-.58,11.67,1.08,15.71,2.05-9.77,2.13-22.16,.44-35.09,.58-2.78,1.28-.08,1.76,.55Z"/><path class="cls-4" d="M3259.4,292.49l4.71,.58c-1.28-.25-2.89-.43-4.71-.58Z"/><path class="cls-4" d="M2804.65,276.81c3.47-.06,4.91-.32,5.09-.56-3.22,.17-5.86,.33-5.09,.56Z"/><path class="cls-4" d="M2726.89,274.31c1.67,.05,3.07,.09,4.59,.13-1.75-.22-3.51-.34-4.59-.13Z"/><path class="cls-4" d="M3259.4,292.49l-12.09-1.48c-.9,.82,6.19,.96,12.09,1.48Z"/><path class="cls-4" d="M3831.69,392.12c.13,2.54,.38,4.66,.7,6.6-.12-2.09-.21-4.11-.28-6.2-.14-.11-.27-.21-.42-.4Z"/><path class="cls-4" d="M3459.72,302.85l3.69,.25c1.11-.22,2.15-.52,3.14-.86l-6.82,.61Z"/><path class="cls-4" d="M3613.25,313.97c-3.46-.38-4.85,1.77-6.26,2.64,2.03-.77,4.63-1,7.69-.93,.09-.42-.32-.97-1.43-1.71Z"/><path class="cls-4" d="M3349.8,295.12c-.24-.35-.77-.68-1.35-.89-.02,.28,.52,.58,1.35,.89Z"/><path class="cls-4" d="M3662.18,514.58c-.14,.15,.02,.27-.03,.4,.91-.14,1.2-.27,.03-.4Z"/><path class="cls-4" d="M3838.43,544.44l-2.47-.16c-.31,.39-.63,.78-.67,1.19l3.14-1.03Z"/><path class="cls-4" d="M2584.4,275.69c.28,0,.37,0,.63,.01,3.73-.45,1.61-.29-.63-.01Z"/><path class="cls-4" d="M1639.01,978.28c-14.71-2.46,24.12-1.84,1.95-4.76,2.04,.94-20.32,2.89-1.95,4.76Z"/><path class="cls-4" d="M3831.98,388.14c-.03-2.08-.04-4.19-.02-6.31-.07,2.87-.07,4.81,.02,6.31Z"/><path class="cls-4" d="M1640.96,973.52v-.02s-2.29-.28-2.29-.28c.95,.12,1.48,.19,2.29,.3Z"/><path class="cls-4" d="M2258.7,325.28c.79,.15,2.16,0,3.57-.18-.19-.18-1.01-.2-3.57,.18Z"/><path class="cls-4" d="M2501.09,285.6l-6.06,.21c2.41,0,4.36-.09,6.06-.21Z"/><path class="cls-4" d="M2146.45,387.38c-2.88,1.63-4.02,1.95-7.6,4.71,.41-.14,.8-.3,1.29-.53,1.19-1.17,2.93-2.47,6.31-4.18Z"/><path class="cls-4" d="M2039.61,465.76c.65-.31,1.44-.81,2.18-1.2,1-.85,2.16-1.85,3.19-2.73-1.79,1.31-3.6,2.59-5.36,3.93Z"/><path class="cls-4" d="M3262.75,480.32c2.83,.85,4.57,1.68,5.92,2.48-1.91-1.75,17.46-.84-5.92-2.48Z"/><path class="cls-4" d="M3832.95,392.05c-.57-.77-.85-1.9-.97-3.92,.04,1.51,.08,2.97,.12,4.39,.33,.38,.65,.47,.85-.47Z"/><path class="cls-4" d="M2151.57,405.16l-8.72,5.57c-2.91,1.85-5.82,3.7-8.68,5.64,2.44-1.55,5.25-3.34,8.23-5.24,2.97-1.9,6.09-3.93,9.17-5.97Z"/><path class="cls-4" d="M2322.47,519.71l4.13-2.63c-1.67,.88-3.15,1.78-4.13,2.63Z"/><path class="cls-4" d="M2084.54,452.75c-3.44,1.6-6.82,3.65-10.2,5.93-.57,.67-1.25,1.39-1.54,1.95,3.9-2.65,7.79-5.31,11.74-7.88Z"/><path class="cls-4" d="M3268.71,482.83s-.04-.03-.04-.03c0,0,0,.02,.04,.03Z"/><path class="cls-4" d="M3406.75,488.62c-19.9-1.75-9.59,2.09-13.96,3.42-23.82-1.16-10.81-3.1-18.77-5.28-14.9-.44-26.5,1.31-37.55,.32-.79-.55-2.92-.9-.35-1.31-15.87,1.07-46.57-3.6-65.08-2.03-1.34-.36-2.01-.66-2.33-.91,2.85,1.7,3.19,3.24,2.5,4.26-8.93-.64-16.7,.6-19.91-1.57,5.47,.46,5.98-.28,8.59-.69l-9.41,.14c-8.21-3.39,12.84-.01,12.99-2.05-18.31-.48-39.73,.25-53.65-1.52-2.73-2.92,32.75,1.44,14.27-2.31l21.55,2.63c-16.21-5.5,13.12,1.27-1.73-4.43-14.21-1.46-22.19-1.68-30.17-1.9-7.98-.23-15.95-.46-30.12-1.83-6.5,1.06,1.96,2.37-4.54,3.44-40.55-.03-31.33-8.99-61.27-7.28-7.8,1.31-10.99,4.55-32.03,1.45l7.4-2.63c-27.57-1.99-16.01,3.46-44.79-.3,5.2-.91,21.74,.24,17.59-.36-18.58-3.5-13.34,.95-27.73,.16l-2.83-2.88c-29.41-1.22-61.89-.88-94.47-1.81,1.84-.73,7.46-1.33-.13-2.5-41.13-.46-87.69-3.79-127.35-6.33l-15.21,2.02c-3.52-.1-6.52-1.19-2.69-1.57-15.45-1.2-.83,1.47-8.28,2.25-8.8-.02-11.6-1.55-6.01-2.17-6.83,.39-15.11,.8-24.14,1.13-9.02,.33-18.79,.69-28.6,.86-9.81,.21-19.67,.35-28.87,.23-9.2-.05-17.75-.31-24.96-.89l5.6-.74c-11.21-.42-17.53,.97-23.62,2.08-3.05,.58-6.05,1.09-9.58,1.39-3.54,.31-7.61,.36-12.82-.06l3.97-.51c-6.08,.04-12.24,.06-18.44,.25-6.2,.2-12.43,.4-18.66,.6-12.46,.56-24.89,1.16-36.97,1.92-24.16,1.45-46.87,2.96-65.64,3.4-.83,.52-2.22,.95-4,1.36-1.78,.43-3.96,.82-6.4,1.18-4.87,.75-10.79,1.27-16.56,2.12-11.56,1.44-22.6,3.6-23.69,6.17-13.99,1.64-19.1,2.06-25.59,3.11-1.63,.25-3.34,.53-5.31,.88-1.97,.33-4.12,.9-6.72,1.5-2.58,.65-5.6,1.32-9.12,2.34-3.51,1.05-7.61,2.23-12.38,3.76-5.02,1.84-8.49,3.92-12.15,6.29-1.81,1.22-3.69,2.48-5.85,3.79-2.15,1.33-4.63,2.61-7.53,4.12l-1.3-2.11-7.56,4.89c-2.52,1.61-4.95,3.38-7.42,5.05-3.25,.53-6.56,.99-9.79,1.63-3.53,2.11-7.07,4.19-10.57,6.33,4.38-2.2,9.72-3.9,9.38-2.93-2.05,1.24-4.25,2.49-6.52,3.72-2.27,1.24-4.57,2.55-6.9,3.77-2.33,1.24-4.68,2.42-6.96,3.58-2.26,1.19-4.47,2.31-6.57,3.35-2.1,1.03-4.08,1.98-5.89,2.81-1.78,.87-3.38,1.62-4.75,2.22-2.72,1.2-4.48,1.81-4.75,1.61-12.4,8.7-24.52,17.71-36.27,27.15,.24-1.37,6.16-6.11,10.73-10.04-9.16,7.98-10.37,8.14-11.47,8.07-1.08-.05-2.02-.32-10.2,7.25,2.71-1.32-.41,2.13-.5,2.83-2.45,1.33-5.48,3.34-8.91,5.74-1.72,1.2-3.53,2.51-5.42,3.88-1.87,1.39-3.79,2.89-5.75,4.42-1.95,1.55-3.95,3.13-5.96,4.73-1.99,1.62-3.96,3.3-5.91,4.95-1.94,1.67-3.87,3.33-5.76,4.94-1.84,1.66-3.63,3.28-5.35,4.84l1.6-3.6c-25.9,21.31-52.09,47.62-78.28,74.39,4.97-4.54,7.46-5.71,7.75-4.77,.28,.93-1.6,4.01-5.32,8.03l-4.93,1.32c-3.78,6.19,8.7-7.51-.02,4.26-9.85,9.87-8.63,4.74-3.69-1.66-3.68,4.32-7.42,8.58-11.05,12.94-1.25,.2,1.18-2.99,1.16-4.43-1.78,3.12-7.31,7.99-12.91,13.34-2.79,2.68-5.64,5.44-8.06,8.14-2.41,2.71-4.41,5.33-5.57,7.67l-1.22,.2c-12.48,13.95-21.17,24.42-29.24,34.26-7.97,9.92-15.4,19.16-24.94,31.03,1.38,1.88-6.5,10.82-10.66,19.07-14.4,17.07-30.88,35.72-46.6,57.59-10.21,15.97-1.71,5.59-5.61,13.26-1.24-.04-5.73,5.44-9.03,9.41-3.29,3.98-5.42,6.44-2,.32-9.19,13.29-14.96,21.86-21.15,31.42-6.16,9.58-12.78,20.15-23.15,37.8,3.1-3.29,6.13-7.26,5.3-4.72-3.75,6.39-9.82,13.75-10.08,12.33l.87-1.77c-1.2,2.21-2.45,4.45-3.74,6.7l-.23,.4-.1,.19-.2,.38-.41,.77c-.29,.52-.57,1.04-.86,1.57-.58,.02-1.19,0-1.79,0-.73-.02-1.45-.04-2.19-.07-2.74-.1-5.5-.22-8.29-.36-5.56-.29-11.2-.65-16.85-1.07-11.3-.83-22.69-1.84-33.74-2.75-22.11-1.81-42.9-3.19-59.14-1.78l2.04-.15-37.76,1.07c-17.33-.88,10.45-1.22-2.35-2.88-40.76,2.17-64.22-2.46-97.77-1.21-3.22-.85-7.07-1.53-11.41-2.07-2.17-.27-4.47-.51-6.86-.72-2.17-.17-4.44-.34-6.78-.52-.75-.18-1.4-.24-2.2-.25-.21,0-.41,0-.62,0h-.33s-.07,.02-.08,0l.03-.06,.07-.12c.18-.32,.37-.65,.55-.98l.64-1.14,.37-.63c.85-1.19,1.7-2.39,2.54-3.58,3.49-4.89,6.99-9.7,10.44-14.29,6.89-9.18,13.58-17.48,19.63-23.84l-2.35,.74c4.36-8.01,7.26-8.18,11.57-13.24-1.45,.07-6.98,6.98-4.18,2.06,22.6-30.82,47.54-61.4,73.44-91.45,25.9-30.06,52.75-59.58,79.15-88.45,9.63-10.58,10.98-14.81,13.23-19.51,2.24-4.7,5.41-9.85,18.84-22.03l-4.96,9.35c18.26-22.43,38.5-43.97,59.04-64.95,20.54-21,41.35-41.47,60.87-61.93-2.01,2.77-1.53,3.41-5.51,7.23,4.94-3.47,12.97-11.01,19.64-17.87,6.72-6.8,12.09-12.92,11.63-13.57,6.61-5.81,2.46-.33,7-3.39,4.81-3.6,9.93-9.11,14.69-13.99,4.74-4.91,9.02-9.28,12.06-10.62,1.02-.47-2.13,2.66-3.67,4.22,2.62-2.91,9.5-8.82,14.85-13.58,5.39-4.71,9.23-8.32,5.67-6.75,16.82-12.88,30.5-26.68,44.65-36,3.53-4.41,10.95-9.63,17.5-14.42,6.59-4.73,12.41-8.91,12.77-11.38,.44,1.87,8.38-2.93,17.47-9.32,4.58-3.14,9.46-6.64,13.82-9.95,4.39-3.25,8.3-6.24,10.84-8.44-1.56,1.69,1.01,.33,3.53-.94,2.52-1.26,5.03-2.35,3.23-.33,12.72-8.27,24.32-15.94,21.09-16.18,1.64-.68,3.25-1.39,4.84-2.14,1.6-.73,3.19-1.47,4.74-2.25,3.12-1.56,6.15-3.22,9.09-4.94,2.95-1.7,5.87-3.37,8.68-5.09,2.83-1.69,5.53-3.47,8.24-5.04,2.69-1.59,5.31-3.13,7.85-4.56,1.27-.72,2.52-1.41,3.75-2.06,1.23-.64,2.47-1.22,3.67-1.77,4.82-2.17,9.27-3.79,13.42-4.14,2.5-1.25,5-2.5,7.48-3.75,2.48-1.24,4.95-2.52,7.43-3.56,2.48-1.1,4.94-2.2,7.4-3.3,1.23-.55,2.46-1.09,3.68-1.64,1.24-.52,2.51-.98,3.76-1.47,2.51-.96,5.01-1.92,7.5-2.88,2.5-.95,4.96-1.95,7.51-2.74,5.06-1.67,10.09-3.34,15.08-4.99,20.18-6.16,40.3-10.91,60.26-15.07-.42,1.86-11.42,4.14-22.03,6.32-10.53,2.47-20.66,4.87-19.37,6.52,18.52-5,33.19-9.14,48.03-12.54,7.42-1.68,14.84-3.39,22.83-4.7,3.99-.69,8.11-1.36,12.43-2.01,4.31-.67,8.85-1.14,13.62-1.68,9.93-.8-5.4,2.28-8.64,3.33,38.14-6.7,74.37-8.31,108.61-12.9-.07,.34-3.76,.97-7.24,1.51,6.78-.62,15.82-.62,14.93-2.2l-6.58,.93c-11.03-1.57,26.61-6.97,27.78-8.18-11.24,5.4,34.17-.92,16.18,6.14,4.45-.6,10.02-1.65,8.94-2.69,6.66-.02,8.8,.51,2.13,2.1,24.31-2.11,15.56-3.52,37.66-4.41-.05,.8-4.49,1.29-6.73,2.32,11.11-2.01,22.29-4.09,41-3.99-1.11,.52,1.08,1.07-4.49,1.24,32.06-1.33,54.6-5.68,89.87-4.69-10.35,3.57,12,1,13.9,3.97,6.31-.38,12.62-.73,18.93-1.04l-7.61-1.41c16.59-.02,31.26-2.32,45.53-1.29l-12.33,1.22,31.1-.53-17.6-1.15c16.8-1.52-1.8-3.8,20.31-2.91-4.49,.28,16.62,.14,25.26,1.96,0,0-.06,0-.06,0,8.22-.91,16.69-1.77,28.96-.9,3.18,.99-2.61,3.27-.54,3.93,8.13-2.45,38.89-.1,49.2-2.56-3.43,.55-3.64,2.11-2.52,2.46l6.84-1.89c7.68,.81,8.8,1.15,7.52,2.37,23.12,.87-7.27-3.96,20.16-1.72-2.16,.11-1.14,.43-5.63,.64,13.78,.76,27.1,.78,40.15,.83,13.05,.1,25.82,.15,38.47,1.08,3.69,1.63-1.85,1.63-7.25,1.57-5.4-.04-10.67-.12-6.43,1.27,36.53,.59,75.75-1.01,111.06,1.2l-6.57-.61c5.08-4.04,26.23,3.23,44.18,2.05-4.39,.11-5.84,2.08-4.64,1.66,24.16,1.82,49.51,1.27,86.23,1.91l-4.6,.85c14.2,1.71,37.5,2.6,52.87,3.97,4.63-.82,13.43-.13,8.17-2.02,47.09,8.95,90.74,2.19,132.5,10.2-5.03-.33-12.06,.14-8.06,.42l35.92,1.46c-2.71-2.04-4.62-1.44-12.05-3.41,4.61-.78,14.79-.92,23.68-.3-16.21,.1-.07,2.96,6.82,4.5-1.13-.65,1.3-1.1,.75-1.72,18.49,4.63,3.41-3.5,28.81,.58l-1.42,.87c9.6,.22,18.51-.43,28.81,.63,4.12,2.45-10.26,.22-11.05,1.94,14.49,.96,28.9-1.9,41.85,1.25-6.2,.11-15.05-.55-21.25-.43,14.09,3.58,15.79,3.09,26.37,4.3l-1.04-.14,24.43,3.06-6.19-1.17c18.57-4.12,36.98,1.92,61.69,.31-24.01,1.49-4.09,1.67-6.1,3.93,6.18,1.18,15.59,2.73,12.83,3.18,11.69-.98,19.12,3.15,35.64,1.7,.66,.84,12.33,1.14,9.56,2.87,15.04,.69-3.43-1.66-2.08-2.53,23.35-.65,54.02,7.99,87.56,7.46,14.39,.59,22.97,.38,31.3,.18,2.08-.05,4.14-.09,6.28-.14,1.92-.06,3.95-.1,6.28-.09,1.19,.01,2.42,.02,3.7,.04,.33,0,.66,.01,.99,.02h.51s.13,.02,.13,.02v.11s.03,.22,.03,.22c.05,.61,.1,1.23,.15,1.86,.2,2.57,.38,5.53,.55,8.95-.62,4.55-1.33,2.6-1.89-.24-.55-2.63-.95-5.67-.95-5.67-.13,1.49-.25,2.94-.37,4.34-.05,.69-.09,1.37-.14,2.04-.04,.84-.07,1.67-.11,2.49-.13,3.28-.18,6.44-.17,9.58,.02,6.27,.3,12.43,.74,19.28-.68-2.78-1.26,.08-2.13,4.26,.2,11,2.84,7.35,1.69,21.86-.87-2.49-2.26-5.68-3.13-10.98,.72,12.96,2.17,25.76,2.88,39.18-1.36,3.56-2.06-8.1-2.95-12.83,.61,15.08,1.23,39.07,3.38,43.73l.77-9.67c.1,5.5-1.85,2.83-2.24-1.23-1.69-12.92,.75-18.64,1.53-19.37l.5,9.55c4.58-9.81-.73-38.38-.47-57.61l3.33,8.02-2.76-19.73c.87-4.19,2.72-7.07,3.22,2.43,1.64-13.79-1.18-12.21,.65-24.05,.29-1.31,.45-.72,.58,.5l-.99-14.27c.35,1.26,.94,.34,1.38,.26,.44-.09,.73,.89,.49,6.13,.24-3.8,.38-7.56,.45-11.12,0-.44,.01-.89,.02-1.33v-.33c-.09-.02-.2-.03-.31-.04l-.63-.07c-.85-.09-1.69-.18-2.51-.27-1.67-.15-3.29-.3-4.87-.45-1.58-.12-3.12-.23-4.62-.35-.73-.05-1.45-.09-2.16-.14-.57-.03-1.13-.05-1.68-.08-2.21-.1-4.3-.15-6.27-.21-7.88-.21-13.88-.31-18.3-1.99h2.03c-33.52-2.04-3.46,2.1-28.78,2.62l-16.32-7.55-3.51,2.13c-3.44-.4-10.24-1.19-8.9-2.05-12.98,.51,2.09,1.25-5.5,2.16-16.4-3.71-45.85-2.99-49.26-7.18-6.12,1.34,15.75,2.79-2.08,2.55-4.7-4.61-20.55-1.03-35.56-4.21,4.84-1.77,19.11,.59,4.09-2.61-9.46,2.88-29.48-3.24-42.34-3.57-.83,2.84-27.93-1.03-49.49-1.71,1.44-.89-40.31-4.68-60.22-7.18l.63-.44c-4.08,2.65-24.67,.6-39.73,.16,.71-1.71,3.46-2.22,11.66-2.43l-14.12-.98c-3.4,.71-7.84,.89-17.02,.59l3.7-1.94c-18.81-1.18-38.03,0-62.12-3.04-1.49,1.96,18.86,6.95-6.79,6.65-.88-1.16-1.7-3.12,5.02-3.14-2.2,0-7.88,.42-12.26-.33l10.34-1.21c-10.96-1.51-5.86,1.19-14.66,.46,.27-1.57-6.45-1.54-5.11-2.71,2.26-.01,7.64,1.14,11.05,.73-9.91-.91-21.86-2.61-25.76-4.04,.81,.95-.13,2.12-7.42,1.89-18.81-1.03-6.32-2.29-17.24-3.77-4.62,.81-16.55-1.01-17.01,1.33-5.5-.33-6.46-1.49-8.55-2.25-9.79,.45-45.49-2.25-34.66,.86l2.49,.3c-.47,.02-1.02,0-1.6,.01h.08s-.08,0-.08,0c-32.03,.6-66.22-4.88-97.95-5.31l.09-.79c-9.48,0-20-.33-29.86-.53-9.86-.21-19.04-.27-25.83,.32-5.59-.23-13.14-1.98-10.71-2.82-14.48,0-16.14,.84-36.98-1.24,14.59-.84-4.97-1.41,14.94-.45-18.76-1.38-22.98-2.82-43.23-1.33,6.94-1.78-14.07-3.05-23.03-2.69l13.13,1.86c-10.05-.05-18.83-.45-27.76-.9l4.9-2.52c-19.19-2.22-36.59-1.24-52.82-.55-16.23,.77-31.29,1.24-45.9-1.68-10.21,1.69,20.88,1.66,11.74,3.68-17.69-.65-36.08-4.79-41.63-4.83-12.12-.88-17.8,.03-23.6,.99-5.81,.99-11.76,2.04-24.45,1.45,3.24,.98,6.29,3.51-12.67,4.31-17.71-.37-21.77-4-10.58-4.75,4.25-.08,6.3,.23,6.12,.55,5.73-.35,13.24-.72,6.23-1.78l-2.3,.95c-8.79-.98-33.18-.9-27.45-2.45-13.4,.96-5.72,1.54,4.2,2.05-11.37-.71-20.25-.62-29.22-.54-8.96,.07-18.01,.29-29.72-.04,3.73,.48,7.17,1.56,3.46,1.59-17.17-.41-20.94,.13-23.33,.82-2.38,.69-3.38,1.56-15,1.98-6.62-.6-5.45-1.49-5.56-2.02-.1-.52-1.47-.74-13.16,.18-14.32-.61-3.09-2.44,2.58-3.36-10.65,1.2-20.63,1.11-29.47,.82-8.84-.28-16.56-.86-22.66-.82l11.22-1.14c-6.71,.69-12.22,.83-17.83,1.05l6.49,1.67c-6.61-.13-12.2,.15-12.11-.66-6.75,1.53,5.33,2.94-8.09,5.2-4.42-.29-11.1,.22-17.07,.58-5.97,.37-11.23,.51-12.81-.67,27.7-.55-3.19-2.42,20.22-3.93-4.51,.47-10.02,.76-16.66,.76-1.01-.23,.91-.57,2.71-.81-26.61-.87-12.03,3.39-39.46,5.01,3.4-1.63-6.53-2.3-10.99-1.71,5.53-.34,6.89,.18,5.61,.98-1.28,.81-5.2,1.89-10.23,2.82-8.82,.09-13.59,.64-17.29,1.24-3.7,.59-6.35,1.24-10.95,1.58l5.27-.19,5.27-.12c-3.45,1.63-12.23,2.22-24.42,3.7-1.14-1.01,11.04-1.7,6.63-1.82-6.68,1.83-14.41,1.78-22.81,1.9-8.4,.11-17.52,.04-26.88,2.01-8.87,.04-1.14-2.56-8.93-2.33-10.51,2.07-16.3,2.44-22.25,2.66-2.97,.12-5.99,.24-9.63,.6-3.65,.35-7.93,1.1-13.44,2.29,6.7,.93,7.73,.3-7.63,4.48l18.16-3.39,18.21-3.08-11.56,2.91-5.77,1.46-5.76,1.56c5.5-.85,11.28-1.88,16.51-2.83,5.23-.95,9.92-1.79,13.25-2.06-10.99,3-9.89,2.38-4.42,3.26-3.86-.22-7.65,.02-11.43,.5-3.78,.49-7.57,1.19-11.4,2.06-3.84,.84-7.74,1.72-11.79,2.44-4.05,.71-8.24,1.24-12.65,1.53l-.24-4.75c-6.63,.6-12.84,1.53-18.95,2.71-6.09,1.3-12.07,2.8-18.29,4.38-3.11,.75-6.25,1.72-9.51,2.6-3.25,.9-6.6,1.81-10.1,2.7-3.5,.84-7.11,1.93-10.92,2.89-3.81,.99-7.81,1.93-12.04,2.89l10.99-1.99c-1.01,.74-2.8,1.46-5.08,2.17-2.28,.72-5.07,1.38-8.03,2.26-2.97,.83-6.13,1.72-9.23,2.59-3.09,.89-6.11,1.8-8.7,2.94,.51-1.84-6.35-.11-11.26,.53,.88,.54-24.09,9.26-25.46,13.62-2.49,.74-4.99,1.46-7.47,2.23l-7.41,2.42c-3.19,1.44-6.03,2.74-8.52,4.1-2.49,1.36-4.7,2.65-6.71,3.9s-3.83,2.45-5.54,3.63c-1.7,1.2-3.28,2.41-4.85,3.6-3.14,2.4-6.27,4.74-10.04,7.33-3.74,2.65-8.18,5.45-14.01,8.7,6.08-5.54-5.02-.39,9.92-10.44-3.88,2.23-7.61,4.29-10.3,5.92-2.68,1.65-4.32,2.91-4.1,3.41-2.48,.95-7.55,4.56-12.86,8.45-5.28,3.94-10.96,7.93-14.77,9.59-2.76,2.66-2.88,4.71-11.28,10.13-1.08,.35-.4-.67-.4-.67,.4,.67-12.29,9.75-4.11,6.24-12.74,5.63-28.25,16.97-43.07,28.37-14.86,11.38-28.87,23.06-39.49,28.93-14.72,12.7-32.17,28.29-45.29,40.04,.53-1.1-.48-.63,2.12-2.72-19.14,15.07-8.2,13.25-29.68,30.66-6.04,3.86-3.59,1.11-.51-1.94,3.07-3.07,6.82-6.37,3.23-3.77-3.17-.63-9.18,5.19-16.35,12.45-3.55,3.66-7.39,7.69-11.32,11.47-3.92,3.78-7.89,7.36-11.77,10.03l3.04-3.35c-11.52,8.57-23.54,25.6-40.13,41.85,0,0,.47-1.13-.46-.65-4.66,6.57-12.05,15.41-20.12,24.69-8.06,9.3-16.78,19.07-24.14,27.46,3.25-6.47,6.18-8.11,1.75-6.46-6.64,7.5,4.41,.13-8.79,15.11-5.25,3.98-15.7,13.94-18.63,13.86l12.68-13.96c-4.32,2.58-8.44,7.09-12.36,11.82-3.9,4.75-7.6,9.73-11.12,13.24l-.07-1.78c-9.54,10.87-13.77,16.92-18.2,23.14-4.44,6.21-9.1,12.58-19.39,24.2l2.82-1.8c-8.77,14.83-10.66,9.58-19.93,23.92l-5.72,1.84c-6.72,8.99-23.01,31.89-35.28,47.76,5.41-10.27,19.53-29.07,27.89-41.06-7.21,8.44-24.1,29.03-26.55,34.51,2.61-3.64,5.61-8.48,8.82-11.55-6.81,12.05-17.27,26.61-31.19,43.76-1.15-3.45-10.52,7.5-21.2,20.61-10.69,13.1-22.65,28.37-29.43,33.27-11.08,16.18-23.02,31.48-35.49,47.43-3.11,3.99-6.25,8.03-9.44,12.11l-1.19,1.54-1.89,2.49c-1.32,1.76-2.64,3.53-3.97,5.3-2.67,3.57-5.33,7.18-8.01,10.85-2.67,3.68-5.35,7.38-8.06,11.12-.68,.94-1.36,1.89-2.04,2.83l-.51,.71-.26,.36-.13,.18s0,.04,.04,.04h.11s1.7,.09,1.7,.09c2.28,.1,4.57,.21,6.86,.32,4.63,.2,9.26,.43,14.07,.58,4.83,.14,9.7,.28,14.61,.42-3.35-.7-5.25-1.21-6.29-1.58-1.02-.37-1.16-.6-.72-.75,.88-.29,4.08-.21,7.92-.12,.96,.02,1.96,.04,2.97,.07,.7,0,1.42,0,2.12,.01,1.3-.01,2.56-.06,3.62-.19,2.12-.26,3.46-.85,2.8-2.09,10.6,.01,14.64,.21,15.57,.56l32.01,3.9c7.57,1.66-10.11,.77-9.17,1.9,23.18,1.08,9.67,2.37,24.97,4.14-3.09-1.85,8.14-2.26,21.34-1.19l-18.55-2.82c32.49-1.61,27.89,4.96,60.64,3.38l-10.38,1.22c16.79-.39,61.84,1.92,78.4-1.5,2.95,.66,6.82,2.11-.56,2.24,13.42,.61,27.88,.65,42.33,.55,7.22-.06,14.45-.12,21.53-.18,3.54-.02,7.05-.04,10.52-.06,.87,0,1.73,0,2.59,0,1.38,.02,2.74,.03,4.11,.05,2.75,.04,5.47,.07,8.17,.11,1.38-2.33,2.75-4.63,4.1-6.91,1.1-1.82,2.2-3.62,3.28-5.4,1.65-2.69,3.29-5.29,4.93-7.79,3.27-5,6.47-9.59,9.61-13.64l-.65,3.18c3.77-6.41,5.22-12.07,11.4-19.14,.14,.68-.68,3.15,1.3,.33,1.83-3.51,9.32-17.56,15.54-25.26l-3.68,7.7c11.67-15.57,19.65-28.19,27.05-40.31,7.4-12.11,14.22-23.71,23.77-36.98,1.37,1.09,6.92-4.29,13.39-11.36,6.48-7.06,13.9-15.81,18.89-21.59l.06,.73c14.29-17.54,25.99-32.77,37.48-47.68,11.5-14.9,22.79-29.47,36.5-45.37,10.24-8.27,25.6-24.03,42.74-40.79,17.1-16.78,36.09-34.44,52.47-47.33-5.18,3.74-1.07-2.79,4.35-7.88,7.83-5.88,19.2-19.26,20.04-15.78l-2.73,2.17c1.91-.57,4.3-1.82,7-3.49,2.7-1.68,5.68-3.85,8.83-6.22,3.18-2.33,6.5-4.9,9.8-7.48,3.32-2.55,6.67-5.05,9.81-7.38l-.43-4.95c18.34-9.69,40.18-25.02,61.03-37.78,2.62-1.56,5.21-3.11,7.75-4.63,1.28-.75,2.54-1.5,3.79-2.24,1.27-.71,2.52-1.4,3.76-2.09,2.49-1.36,4.92-2.7,7.27-3.98,2.38-1.24,4.71-2.37,6.95-3.46,2.24-1.07,4.39-2.12,6.47-3.01,2.09-.87,4.08-1.66,5.97-2.35,1.88-.69,3.66-1.3,5.31-1.79,1.66-.47,3.21-.79,4.62-1.02,2.14-1.19,4.45-2.39,6.84-3.58,2.39-1.18,4.91-2.23,7.41-3.36,1.25-.55,2.5-1.11,3.74-1.66,.62-.28,1.24-.55,1.85-.83,.62-.26,1.24-.51,1.85-.77,2.45-1.03,4.81-2.06,7.02-3.11l.24,2.32c3.19-1.09,6.24-1.92,9.13-2.75,1.45-.42,2.86-.82,4.24-1.22,1.38-.41,2.74-.8,4.08-1.1,2.68-.66,5.28-1.31,7.87-1.95,1.3-.31,2.57-.68,3.89-.94,1.32-.28,2.64-.56,3.97-.84,2.66-.58,5.37-1.16,8.19-1.78,2.83-.6,5.82-1.1,8.96-1.72,1.57-.3,3.19-.61,4.86-.94,.83-.16,1.68-.33,2.54-.49,.87-.14,1.75-.29,2.65-.44,3.6-.61,7.44-1.26,11.59-1.96l-6.54,2.65c9.35-1.45,15.1-3.74,20.69-6.16,5.57-2.46,11.06-4.68,19.85-5.72,1.88,.94,3.75,1.84,5.63,2.82,33.31-3.23,67.3-2.09,100.31-6.25-.53,.51-1.48,1.53-6.9,1.85,3.95-.1,9.73-.19,16.11-.22,6.38-.01,13.34-.05,19.63-.21,12.58-.25,22.47-.99,19.57-3.27,.43,2.95,34.65-.09,52.83-1.33l-2.83,2.23c7.66-1.43,11.62-2.32,16.34-2.93,4.72-.61,10.2-.97,20.91-1.28,5.08,.37,4.43,1.84-2.31,1.19,16.9,1.39,13.21-1.96,33.7-.44l-7.67,1.29c17.4,.48,16.03-.28,25.64-1.76,10.97-.67,33.01,1.38,35.52,3.46,2.38-1.16,11.96-2.51,22.2-1.62,1.36,.8-2.39,1.16-4.27,1.34,29.04,2.44,43.36-1.1,63.28,1.89,.39,.75,1.67,1.18,3.32,1.46-11.55-.51-21.98-.96-29.3-1.28-7.32-.32-11.54-.53-10.66-.58-.07,2.05,18.57,3.07,3.63,5.39,15.02-1.02,40.78-3.35,58.93-1.57,.87,.24,1.72,.47,2.37,.82l-1.89,.15c4.19,.39,7.96,.35,11.51,.18,5.79,.61,9.46,1.04,15.03,1.34,1.04,.9,6.37,1.38,12.61,1.71,6.24,.35,13.38,.54,18.03,.82-.65-2.29,11.51-1.3,.19-3.74,1.47,.24-1.77,.18-7.96-.05-1.4,0-3.05-.06-3.98,.03,.18-.05,.41-.11,.64-.16-6.11-.26-14.08-.6-23.14-.98,7.4-.79,15.14-1.4,25.36,.39,4.85-1.2,10.18-2.41,13.18-2.96,12.58,3.78,37.02,6.84,40.32,8.97,28.47,.34,66.93,3.17,85.06,.12,8.11-.03,9.2,1.82,12.18,2.68-4.69,.11-10.23-.32-12.79,.13,16.21-.04,47.84,2.77,51.9,.11,20.25,2.74-11.62,1.91,16.36,3.38l-3.84,.63c54.61,8.62,89.94-.98,150.38,9.97-4.19-.71-6.28-1.05-7.11-1.61,69.21,8.28,143.3,9.61,211.36,20.27,19.38,2.67,21.66,1.02,33.67,.72l3.98,2.81,20.57-.81c28.99,.78,49.25,10.79,86.05,10.67l-4.53-2.1c13.05,1.63,41.53,3.32,39.15,4.95,1.37-.16,4.46-1.23,9.49,.15l.27,1.3,32.35,1.25c24.79,3.59-4.43,4.55,31.86,8.74,13.55,.98,38.83,.62,33.86-.78-5.43-.68-13.82-2.35-14.09-3.65l12.42,.73c2.66-3.43,12.6-6.18-17.46-12.16l-21.39-.06-6.62-2.54,17.81,1.83c-9.91-2.8-16.48-2-23.75-1.74-1.59-1.14-4.49-2.13-8.65-2.93l-21.14,1.33c-2.36-1.72,9.62-1.89-4.23-4.16-9.9,.61,8.98,4.23-7.23,3.61-9.94-2.74-6.84-3.81-18.87-3.6-1.57-1.13,1.01-1.47,5.76-1.41-10.69,.04-28.03-2.41-33.69-1-10.33-3.16-35.75-3.08-34.36-6.47-3.41,.5-18.9,.9-28.63,.08,18.16-2.46-36.34-3.82-31.21-7.84-13.5,2.49-47.63-2.88-71.1-2.94,1.33-.18,3.94-.55,5.98-.17-13.07-1.53-16.78-3.02-25.13-4.51-1.97,2.97-22.44,1.81-33.62,2.76-15.79-4.45,10.09-2.79,5.3-6.14,.58,2.6-28.14,.03-22.86,2.63-12.12-2.95-10.51-1.83-16.61-4.98-2.5,3.72-11.5-.35-21.9,1.18-17.62-3.45-4.26-4.06-23.91-4.54-9.2-1.98,8.3-1.89,8.3-1.89Zm-465.9-24.53s0-.04,0-.04c4.02,.12,7.44,.23,9.63,.29-2.01-.05-4.78-.12-9.63-.25Zm-39.18-1.58c4.77,.28,10.71,.53,16.99,.76,1.34,.83-.18,1.57-4.12,1.37,2.16-.43-7.05-1.25-12.87-2.14Zm82.08,19.21c-6.2,.02-8.25-.52-9.08-1.02,2.92,.1,6.34,.18,10.83,.25,.18-.07,.56-.15,.74-.24-.61,.4-1.31,.76-2.5,1Z"/><path class="cls-4" d="M2995.03,479.34c.9,0,1.4-.07,2.56-.03-1.25-.26-2.45-.49-3.67-.69-.77,.2-1.55,.4-2.23,.59,1.12,.05,2.29,.09,3.33,.14Z"/><path class="cls-4" d="M3264.93,293.17l-.82-.1c.68,.13,1.31,.25,1.71,.42-.55-.14-.54-.21-.89-.32Z"/><path class="cls-4" d="M2361.66,498.68l.29,.5c.99-.63,1.98-1.29,2.98-1.9-1.1,.45-2.18,.94-3.27,1.41Z"/><path class="cls-4" d="M3479.76,314.52c.4,.23,1.19,.49,2.78,.78-.11-.16-1.32-.45-2.78-.78Z"/><path class="cls-4" d="M3572.63,321.94l13.07,1.82c-5.65-.9-9.77-1.43-13.07-1.82Z"/><path class="cls-4" d="M3643.94,328.77c.94-.32,1.22-.59,1.48-.85-.06-.01-.09-.02-.14-.03l-1.34,.87Z"/><path class="cls-4" d="M2507.21,300.18c-.95,.09-1.9,.2-2.74,.33-6.4,.98-2.04,.44,2.74-.33Z"/><path class="cls-4" d="M2845.33,285.55c-3.6,.38-7.15,.76-10.9,.99,6.03,.21,10.72,.29,10.9-.99Z"/><path class="cls-4" d="M2153.49,403.97s-.01-.02,.01-.05c-.67,.44-1.28,.8-1.94,1.25,.63-.41,1.29-.8,1.93-1.19Z"/><path class="cls-4" d="M2818.67,286.4c6.03,.49,11.07,.42,15.75,.14-4.94-.18-10.77-.45-15.75-.14Z"/><path class="cls-4" d="M3831.48,456.02l-.09,3.45c.15-.06,.27,.15,.36,.41l-.27-3.86Z"/><path class="cls-4" d="M3831.75,459.88l.27,3.83c0-1.76-.02-3.29-.27-3.83Z"/><path class="cls-4" d="M3832.58,471.78l-.57-8.07c0,2.79-.08,6.24,.57,8.07Z"/><path class="cls-4" d="M3832.52,361.15l-.82-1.09c.17,.59,.43,.97,.82,1.09Z"/><path class="cls-4" d="M3828.17,345.5c.87,.13,1.8,.36,2.69,.61,.22,.06,.44,.13,.66,.2l.16,.05,.08,.03s0,.07-.01,.11l-.07,.45c-.09,.58-.18,1.17-.27,1.77-.17,1.15-.33,2.22-.4,3.25-.08,2.31-.08,4.84,.05,7.21l.65,.9c-.3-1.13-.33-3.02-.23-5.32,.03-.58,.07-1.18,.1-1.8,.02-.31,.04-.63,.07-.95,.02-.15,.05-.31,.07-.46,.11-.67,.22-1.37,.34-2.07,.12-.74,.23-1.53,.33-2.33,.04-.4,.09-.8,.13-1.19,0-.09,.04-.21,0-.28l-.24-.05c-.17-.03-.33-.06-.49-.09-1.31-.22-2.65-.29-3.62-.04Z"/><path class="cls-4" d="M3711.1,324.58l24.01,2.77c-4.13-1.24-9.56-2.89,1.41-2.13-30.11-5.26,6.09,2.48-25.42-.64Z"/><path class="cls-4" d="M3636.55,317c12.97,.67-.05-1.27,.68-1.7-8.27,.11-10.28,.15-.68,1.7Z"/><path class="cls-4" d="M3096.15,283.34l1.39-1.99c-10.02-.11-.13,.79-1.39,1.99Z"/><polygon class="cls-4" points="2992.38 290.37 3002.07 291.93 3006.75 290.2 2992.38 290.37"/><polygon class="cls-4" points="2931.62 274.31 2936 274.11 2919.28 274.5 2931.62 274.31"/><path class="cls-4" d="M2056.73,449.43l3.95,.1c5.06-4.55,4.45-7.67-3.95-.1Z"/><path class="cls-4" d="M1777.52,726.38c-3.75,2.41-11.65,10.21-15.14,16.21,5.88-6.6,12.44-12.59,15.14-16.21Z"/><path class="cls-4" d="M2281.38,567.95c-1.98,1.69-3.96,3.39-5.89,5.15,1.91-1.53,3.85-3.02,5.8-4.49l5.84-4.44-5.75,3.78Z"/></g></g><g class="cls-5"><path class="cls-1" d="M937.09-2.09s27.14,303.4,554.95,291.29C2019.85,277.1,1919.25,0,1919.25,0h300.9s-21.71,528.39-712.09,518.86C817.68,509.32,636-2.09,636-2.09h301.09Z"/><g><path class="cls-2" d="M937.09,3.24c2.07-.69,.9-2.25-4.81-1.94l-4.06,2.65,8.87-.71Z"/><path class="cls-2" d="M898.65-1.67c-6.72,1.28-14.47,3.54-10.11,5.97,6.65-2.54,8.26-1.48,15.43-4.51,5.72-.31,9.98,.85,9.01,1.82,2.02-.68,8.88,.58,11.96-1.08-7.44-2.05-16.86-2.13-26.7-.44-2.11-.58-.06-1.28,.42-1.76Z"/><path class="cls-2" d="M797.56,244.46l-2.28-2.82c.56,.83,1.35,1.79,2.28,2.82Z"/><path class="cls-2" d="M1082.55,439.87c-2.47-.96-3.6-1.15-3.81-.98,2.34,.79,4.27,1.42,3.81,.98Z"/><path class="cls-2" d="M1136.92,464.17c-1.18-.49-2.18-.91-3.24-1.36,1.18,.68,2.4,1.27,3.24,1.36Z"/><path class="cls-2" d="M797.56,244.46c1.96,2.41,3.97,4.77,5.96,7.17,1.08-.16-2.93-3.8-5.96-7.17Z"/><path class="cls-2" d="M821.63,4.72c1.94-.13,3.55-.38,5.02-.7-1.59,.11-3.13,.21-4.72,.28-.09,.14-.16,.27-.3,.42Z"/><path class="cls-2" d="M699.04,127.09l-1.58-2.35c-.71-.52-1.45-.97-2.21-1.36l3.79,3.71Z"/><path class="cls-2" d="M640.47,24.72c1.03,2.48,3.45,2.38,4.78,2.89-1.48-.97-2.69-2.58-3.83-4.64-.41,.14-.73,.67-.95,1.75Z"/><path class="cls-2" d="M749.31,194.86c-.13,.37-.09,.88,.07,1.34,.22-.18,.15-.68-.07-1.34Z"/><path class="cls-2" d="M983.97,126.76c.19-.02,.18-.19,.31-.25-.6-.42-.86-.5-.31,.25Z"/><path class="cls-2" d="M1240.73,497.84c-.2-.07-.27-.09-.46-.16-2.85-.45-1.26-.1,.46,.16Z"/><path class="cls-2" d="M2148.08,241.78c-3.85,4.34-1.93,.04-.5-3.66,1.45-3.7,2.49-6.78-2.88-.05,.77-.46-.44,3.35-.94,5.78-.48,2.44,0,3.64,4.32-2.07Z"/><path class="cls-2" d="M818.6,4.43c-1.58,.03-3.19,.04-4.8,.02,2.18,.07,3.66,.07,4.8-.02Z"/><path class="cls-2" d="M2144.7,238.07h-.01s-1.09,1.39-1.09,1.39c.46-.57,.72-.9,1.11-1.39Z"/><path class="cls-2" d="M1489.75,528c-.5-.41-1.49-.73-2.53-1.05,.08,.23,.65,.53,2.53,1.05Z"/><path class="cls-2" d="M1304.35,506.4l4.5,1.08c-1.77-.51-3.22-.83-4.5-1.08Z"/><path class="cls-2" d="M1586.66,523.89c2.52,.05,3.39,.32,6.8-.15-.32-.1-.64-.16-1.06-.22-1.22,.37-2.86,.59-5.74,.37Z"/><path class="cls-2" d="M1687.1,514.42c-.55-.08-1.27-.1-1.91-.18-.99,.17-2.14,.36-3.15,.53,1.69-.12,3.38-.18,5.06-.35Z"/><path class="cls-2" d="M1249.78,277.64c-2.03-1.1-3.23-2.09-4.12-2.99,.59,.94-2.8,.78-4.11,.75-1.31,0-.6,.37,8.24,2.24Z"/><path class="cls-2" d="M821.58,3.46c-.59,.57-1.44,.85-2.98,.97,1.15-.03,2.26-.07,3.34-.12,.29-.33,.36-.65-.36-.85Z"/><path class="cls-2" d="M1589.83,505.97c5.26-.15,10.53-.23,15.77-.57-2.21,.03-4.74,.21-7.43,.25-2.69,.07-5.53,.18-8.34,.32Z"/><path class="cls-2" d="M1922.04,123.26c-.4,1.23-.86,2.42-1.29,3.64,.64-1.34,1.16-2.61,1.29-3.64Z"/><path class="cls-2" d="M1652.19,500.97c1.44,.25,2.92,.42,4.43,.52,1.5,.07,3.03,.06,4.57,0,.63-.26,1.35-.5,1.75-.81l-5.37,.2c-1.79,.07-3.59,.05-5.38,.08Z"/><path class="cls-2" d="M1245.63,274.62s.03,.03,.03,.03c0,0,0-.01-.03-.03Z"/><path class="cls-2" d="M1142.52,246.89c3.57,1.54,5.85,2.32,7.31,2.63,1.46,.29,2.12,.08,2.43-.3,.63-.77-.08-2.29,1.77-2.48,8.71,2.99,10.49,4.27,10.77,5.28,.28,1-.99,1.76,1.71,3.54,2.78,.8,5.45,1.44,8,1.98,2.55,.54,4.99,1.01,7.36,1.37,4.72,.77,9.04,1.53,13.09,2.93,.46,.65,2,1.3-.05,1.32,6.18,.62,14.75,3.36,23.72,5.62,2.24,.58,4.49,1.17,6.72,1.74,2.23,.55,4.47,.99,6.63,1.42,4.34,.83,8.44,1.45,12.03,1.55,.96,.48,1.42,.84,1.63,1.12-1.89-1.94-1.88-3.48-1.18-4.42,6.69,1.45,12.78,.95,14.88,3.4-4.08-.97-4.59-.29-6.64-.13l7.18,.75c5.73,4.13-9.77-1.2-10.22,.8,3.48,.55,7.11,1.04,10.76,1.52,3.66,.4,7.35,.8,10.93,1.19,7.14,.89,13.86,1.6,19.07,2.92,.88,1.53-5.35,.68-10.08,.05-2.37-.29-4.35-.64-4.9-.52-.54,.1,.34,.66,3.77,1.9-5.39-1.37-10.77-2.83-16.14-4.24,11.64,6.68-9.89-2.27,.68,4.5,5.36,1.27,9.57,2.11,13.2,2.75,3.64,.58,6.7,.92,9.76,1.28,3.06,.35,6.11,.72,9.74,1.26,3.64,.47,7.86,1.12,13.25,2.13,5.09-.76-1.29-2.45,3.79-3.21,7.77,.41,13.11,1.11,17.12,2.11,2,.48,3.67,1.03,5.15,1.57,1.48,.52,2.76,1.07,3.98,1.59,2.44,1.06,4.63,2.07,7.66,2.73,3.03,.64,6.89,1.06,12.67,.59,3.03-.65,5.18-1.79,8.58-2.36,3.4-.58,8.02-.54,16.05,.83l-5.73,2.71c21.16,1.6,12.32-3.48,34.35-.47-3.98,1.04-16.66,.3-13.48,.8,14.25,3.04,10.24-1.3,21.24-.83l2.2,2.77c22.57,.29,47.39-1.68,72.25-2.74-1.35,.85-5.61,1.84,.24,2.49,7.85-.61,15.96-.93,24.2-1.31,4.12-.2,8.26-.37,12.42-.51,4.16-.14,8.33-.23,12.49-.43,4.17-.14,8.32-.28,12.45-.42,2.07-.06,4.13-.12,6.18-.18,2.05-.09,4.09-.17,6.12-.26,8.12-.33,16.08-.55,23.69-1.01l11.31-3.55c2.69-.27,5.1,.44,2.25,1.26,11.89-.6,.43-1.56,5.98-3.18,6.66-1.01,9.01,.22,4.86,1.46,2.57-.56,5.41-1.17,8.45-1.83,3.04-.7,6.29-1.43,9.67-2.16,6.77-1.45,14.1-3.01,21.46-4.58,1.84-.37,3.69-.74,5.53-1.11,1.84-.39,3.67-.78,5.48-1.16,3.63-.76,7.22-1.46,10.69-2.08,6.93-1.32,13.39-2.48,18.94-3.04l-4.05,1.61c4.27-.66,7.49-1.68,10.2-2.73,2.71-1.05,4.89-2.17,7.04-3.25,2.15-1.05,4.26-2.13,6.82-3.07,2.56-.93,5.58-1.71,9.58-2.25l-2.83,1.21c18.12-4.57,36.75-11.11,53.99-18.18,17.27-7.03,33.11-14.59,46.51-20.37,.38-.71,1.19-1.52,2.3-2.39,1.12-.86,2.52-1.85,4.11-2.91,3.17-2.13,7.18-4.37,10.92-6.9,1.89-1.23,3.75-2.46,5.48-3.66,1.68-1.26,3.23-2.47,4.53-3.61,1.3-1.13,2.36-2.18,3.06-3.11,.69-.94,1-1.78,.88-2.43,4.56-2.94,7.75-4.86,10.21-6.54,2.48-1.65,4.46-2.78,6.5-4.28,4.05-3.03,9.21-6.55,19.96-17.94,5.42-6.41,5.54-11.48,10.75-20.21l2.2,1.15c.46-1.1,.95-2.16,1.38-3.27l1.26-3.32,1.24-3.3c.42-1.1,.75-2.23,1.13-3.34,2.03-1.68,4.14-3.36,6.09-5.18l1.87-4.49c.6-1.5,1.13-3.04,1.7-4.56-1.64,3.51-4.47,6.95-4.84,6.11,2.81-6.96,6.73-15.17,9.67-21.93,.81-1.66,1.43-3.27,2.11-4.69,.64-1.43,1.29-2.69,1.78-3.76,1.01-2.14,1.77-3.43,2.1-3.44l.45-2.21,.37-2.22,.73-4.44c.36-2.98,.83-5.93,1.06-8.92,.62-5.94,.84-11.91,.88-17.84,.48,.42,.72,2.13,.8,4.34,.05,1.1,.08,2.33,.11,3.58,0,1.25-.02,2.52,0,3.72-.02-4.83-.06-7.44,.19-8.92,.23-1.48,.54-1.85,.91-2.16,.36-.31,.71-.58,.9-1.88,.09-.65,.15-1.56,.12-2.85-.05-1.3-.18-2.99-.42-5.19-.61,2.34-1.43-1.29-1.96-1.68,.78-4.33,.98-11.5,.35-19.38-.35-3.93-.84-8.04-1.56-12.06-.36-2.01-.74-3.99-1.18-5.92-.11-.48-.22-.96-.33-1.44-.08-.35-.05-.2-.08-.29l-.06-.16c-.09-.22-.17-.44-.25-.65,.64,.27,1.25,.43,1.84,.48-.04-.54-.13-1.02-.33-1.58-.07-.1,.05-.08,.11-.08h.22s.44-.05,.44-.05c.32-.04,.64-.07,.96-.11,5.1-.1,10.29-.2,15.55-.3,11.28-.21,22.83-.42,34.44-.4-10.14-.79-7.81-3.74,.48-4.02l3.32,2.61c5.35-1.61-8.66-.98,2.33-2.96,10.56,.3,7.1,2.96,1.04,3.81l12.84-.9c.75,.78-2.26,1.19-3.04,2.18,5.27-1.62,22.17,2.62,29.77-.2l.72,.78c28.27,.02,41.09-.88,64.12-1.01,.45-2.25,9.45-1.75,16.32-3.57,16.92,.72,35.71,2.49,56.1,2.3,14.33-1.12,4.19-1.9,10.63-3.24,1.05,2.05,21.42,1.86,10.86,3.33,5.85-.09,10.64-.16,15-.23,1.24-.08,2.42-.17,3.83-.31,.02,0,.05,0,.06,0v.05s.01,.11,.01,.11l.02,.22,.03,.45c.02,.31,.03,.63,.05,.96,.03,.68,.07,1.43,.08,2.36v.21s-.03,.5-.03,.5c-.02,.33-.04,.67-.07,1.01-.05,.68-.1,1.38-.14,2.09-.11,1.43-.22,2.92-.34,4.48-.27,3.13-.57,6.55-.97,10.34,1.35-3.13,2.25-6.77,2.66-4.76-.47,5.54-2.86,12.32-3.7,11.36l.03-1.47c-.68,8.56-2.46,17.63-4.87,26.77-2.42,9.14-5.53,18.33-8.7,27.23-6.42,17.8-13.34,34.3-16.22,47.75l.34-1.5-.98,3.4-1.04,3.38-2.09,6.77c-1.45,4.5-2.96,8.98-4.47,13.46-5.65,11.73,1.78-7.73-3.32,.53-4.53,14.62-10.12,25.35-15.59,35.29-2.81,4.94-5.51,9.74-8.36,14.62-1.4,2.45-2.76,4.98-4.14,7.57-1.42,2.58-2.82,5.25-4.2,8.09-.95,.84-1.92,1.81-2.9,2.88-1.01,1.06-2.05,2.22-3.1,3.48-2.11,2.51-4.25,5.43-6.5,8.58-2.3,3.12-4.67,6.5-7.06,10.06-2.45,3.52-4.99,7.17-7.56,10.85-.64,.92-1.27,1.86-1.93,2.78l-2,2.74c-1.34,1.82-2.68,3.65-4.01,5.46-2.62,3.66-5.45,7.1-8.16,10.43-1.36,1.66-2.71,3.28-4.05,4.85-1.37,1.54-2.75,3-4.09,4.4-2.7,2.8-5.29,5.35-7.81,7.46,.7-.05,1.39-.11,2.06-.18-3.5,5.93-6.12,5.47-9.7,8.9,1.28,.24,5.89-4.52,3.62-.91-18.71,21.71-41.12,41.33-65.1,58.84-2.95,2.26-6.06,4.3-9.11,6.42-3.07,2.1-6.11,4.23-9.21,6.29l-9.4,5.99-4.69,2.99c-1.57,.99-3.19,1.9-4.78,2.86-3.19,1.89-6.37,3.78-9.56,5.67l-2.38,1.42-2.43,1.34-4.85,2.68c-3.22,1.79-6.44,3.57-9.65,5.35-3.26,1.69-6.52,3.37-9.77,5.06-4.73,2.49-7.53,4.54-9.56,6.2-2,1.71-3.14,3.21-4.48,4.71-1.34,1.5-2.89,3-5.71,4.7-2.79,1.76-6.99,3.48-13.5,5.59l5.85-5.64c-4.74,2.64-9.55,5.21-14.42,7.73-4.92,2.41-9.94,4.65-14.97,6.91-5,2.32-10.18,4.27-15.32,6.3-5.16,2-10.29,4.07-15.54,5.81-5.22,1.82-10.43,3.64-15.63,5.45-5.25,1.66-10.48,3.33-15.67,5.04l-3.89,1.29c-1.29,.44-2.59,.86-3.89,1.25-2.6,.81-5.19,1.62-7.77,2.42-2.58,.82-5.15,1.66-7.7,2.51-2.55,.85-5.08,1.75-7.64,2.53,1.16-.6,1.7-1.1,2.46-1.57,.75-.5,1.72-.97,3.72-1.54-1.15,.07-2.5,.27-4,.56-1.51,.25-3.17,.58-4.9,.97-3.46,.79-7.2,1.82-10.64,2.9-3.45,1.06-6.6,2.23-8.9,3.1-2.3,.87-3.73,1.6-3.68,1.99-6.54,1.25-1.82-1.05-5.99-.96-4.54,.39-9.92,2.26-14.86,3.78-4.95,1.45-9.42,2.72-11.95,2.22-.86-.15,2.38-1.08,3.98-1.53-2.81,1-9.56,2.21-14.87,3.31-5.33,1-9.23,1.84-6.25,2.51-4.01,.37-7.89,.91-11.67,1.53-1.89,.31-3.75,.64-5.59,.98-1.84,.34-3.65,.69-5.45,.95-7.18,1.14-13.97,2.21-20.4,2.38-3.98,1.84-10.88,2.15-17.02,2.62-6.15,.45-11.57,.96-12.74,2.84,.2-.95-1.46-1.35-4.23-1.59-2.77-.21-6.65-.12-10.87,.16-4.22,.28-8.77,.76-12.91,1.31-2.07,.29-4.03,.57-5.79,.82-1.76,.26-3.32,.53-4.58,.81,3.34-1.26-8.89-.71-4.98-2.41-5.78,.3-11.32,.75-15.15,1.34-1.91,.31-3.41,.61-4.29,.95-.88,.35-1.16,.74-.63,1.2-5.38-.96-10.74-1.16-15.96-1-2.61,.08-5.18,.25-7.7,.45-2.52,.21-4.98,.47-7.38,.62-9.57,.7-18.01,1.25-24-1.53-34.49,1.51-66.51,1.28-97.57-.38,.71-1.76,9.27-1.23,17.53-.74,4.13,.24,8.18,.47,11.13,.4,2.95-.08,4.81-.54,4.53-1.49-3.69,.05-7.17-.07-10.51-.06-3.35,0-6.54,0-9.64,.01-3.11,.02-6.11,.05-9.07,.07-1.48,.01-2.95,.02-4.41,.03-1.46-.03-2.91-.06-4.36-.09-5.8-.13-11.59-.34-17.75-.74-3.08-.22-6.25-.4-9.55-.81-3.3-.39-6.73-.86-10.34-1.4-7.45-1.4,4.45-1.04,7.05-1.34-7.34-.51-14.53-1.22-21.61-2-7.06-.87-13.98-1.97-20.82-2.96-3.41-.5-6.8-1-10.17-1.5-3.36-.56-6.69-1.1-10.01-1.6-3.32-.5-6.62-.97-9.91-1.39-3.3-.39-6.57-.79-9.82-1.18,.14-.33,2.96-.1,5.65,.05-2.56-.34-5.47-1.1-7.71-1.47-2.25-.38-3.83-.44-3.7,.42l5.02,.53c7.67,3.94-21.07,.92-22.27,1.97,4.79-1.46-1.53-2.94-7.12-4.71-5.6-1.71-10.52-3.42-3.09-4.81-3.37-.44-7.7-.6-7.18,.64-4.85-1.41-6.26-2.38-1-2.48-9.12-1.52-12.14-1.68-14.95-1.81-2.81-.14-5.38-.34-13.51-2.38,.26-.76,3.61-.24,5.52-.72-4.29-.3-8.63-.49-13.54-1.33-4.91-.84-10.44-2.14-17.18-4.35,.95-.23-.46-1.27,3.6-.14-2.94-.78-5.78-1.47-8.56-2.11-2.76-.69-5.45-1.35-8.11-1.95-5.31-1.22-10.48-2.31-15.71-3.47-5.2-1.23-10.44-2.64-15.95-4.28-2.75-.83-5.57-1.73-8.48-2.73-2.89-1.05-5.85-2.24-8.94-3.54,8.56-.59-8.17-4.14-8.46-7.42-4.61-1.28-9.14-2.8-13.7-4.23l4.84,3.43c-5.85-2.3-11.55-3.94-17.02-5.62-5.45-1.71-10.6-3.62-15.41-6.13l9.09,2.46-10.97-4.27-5.49-2.14-5.44-2.26c1.96,1.07,3.89,2.19,5.87,3.21l5.93,3.09c-6.17-1.74-6.24-.74-6.64-.21-.4,.53-1.18,.65-8.67-3.18,1.62,.56-1.26-.74-5.2-2.71-3.94-1.98-8.97-4.57-11.53-6.83,0,0,.04,.02,.04,.01-3.01-.91-6.08-1.83-9.4-3.11-1.66-.64-3.39-1.37-5.21-2.23-1.82-.86-3.73-1.85-5.72-3.09-1.73-1.95,3.2-2.08,2.08-3.36-3.29-.27-9.93-3.45-16.77-6.7-6.79-3.35-13.71-6.9-17.78-7.56,2.59,.68,3.45-.63,2.86-1.32l-5.52-.67c-4.77-3.42-5.34-4.14-3.91-4.75-15.03-9,2.97,6.06-14.31-5.68,1.5,.67,.98,.02,4.09,1.44-17.61-11.24-35.34-19.67-50.69-31.31-3.03-5.64,14.34,8.71,10.35,2.99-2.9-1.86-5.86-3.71-8.84-5.54-2.97-1.85-6.04-3.62-9.01-5.54-3-1.88-6.01-3.77-9.03-5.66-3.02-1.88-6.05-3.76-9-5.75-2.96-1.97-5.92-3.94-8.86-5.89-1.46-.99-2.94-1.96-4.37-2.98-1.42-1.03-2.84-2.05-4.26-3.08-5.64-4.12-11.15-8.24-16.21-12.64l3.67,3.4c-2.76,.49-6.33-3.07-10.66-7.61-2.19-2.24-4.47-4.84-6.98-7.27-2.5-2.44-5.2-4.75-8.11-6.56,2.74,1.91,4.85,1.02,3.86,.8-13.42-12.46-28.88-23.84-49.57-42.52l3.2,1.66c-3.46-4.19-8.46-9.23-13.36-14.54-2.47-2.63-4.96-5.28-7.33-7.8-2.32-2.57-4.5-5.03-6.39-7.26-1.57-.9-3.46-2.61-4.76-3.58-1.28-.99-1.98-1.25-1.21,.8-9.78-15.45-21.45-27.92-32.64-40.32-11.17-12.38-21.84-24.69-28.95-39.23,2.24,3.09,6.08,6.83,4.31,4.36-2.78-3.58-5.56-7.15-8.26-10.79l-4.08-5.44-4-5.5c-.32,2.81,1.01,3.61,3.1,9.12-.72-.55-1.57-1.34-2.52-2.28-.93-.96-1.93-2.09-2.97-3.32-2.06-2.48-4.3-5.34-6.13-8.19,7.81,9.56,2.38-1.71,.41-6.72,0,1.05-1.5-.13-1.74,.56-1.26-3.43-2.13-5.15-2.9-6.08-.77-.93-1.44-1.05-2.22-1.29-.78-.24-1.68-.61-2.91-2.02-.62-.71-1.32-1.67-2.13-3.01-.79-1.35-1.69-3.09-2.71-5.31l1.36,.38c-2.11-2.98-4.3-5.74-6.4-8.65-2.12-2.9-4.18-5.92-5.99-9.42,.24-3.89,4.7,6.25,6.51,5.77-5.64-9.42-14.31-16.93-17.1-26.79,1.37,1.93,2.85,4.37,4.33,6.82,1.5,2.44,3.02,4.86,4.4,6.76-1.53-5.36-2.57-8.23-3.64-10.69-1.08-2.45-2.25-4.47-3.9-8.13l.31,.73c-1.26-2.84-2.52-5.67-3.72-8.53-1.23-2.84-2.42-5.71-3.59-8.57l1.46,4.55c-5.53-4.93-8.78-11.18-11.9-18.12-.69-1.56-1.38-3.15-2.1-4.77-.67-1.51-1.35-3.07-2.13-4.71-.77-1.65-1.63-3.39-2.66-5.36-.55-1.04-1.11-2.1-1.67-3.17-.08-.1,.05-.06,.07-.08l.15-.03,.29-.07,.59-.14c.4-.11,.81-.21,1.22-.32-.81,.22-1.47,.41-2.01,.59l-.2,.07s.1,.2,.15,.3c.13,.21,.25,.42,.37,.62,.24,.39,.46,.76,.67,1.09,.83,1.33,1.43,2.18,1.87,2.75,.87,1.12,1.1,1.1,1.17,.75,.06-.35-.05-1.06,.09-1.47,.13-.41,.52-.48,1.48,.29,0-.13,0-.26,0-.4-.03-.05,.07-.02,.13-.01l.19,.03,.38,.06c.49,.09,1,.17,1.5,.26,.98,.18,1.88,.35,2.63,.53,1.5,.36,2.32,.72,2.12,1.06,.61-.49,1.6-.64,2.58-.63,.5,0,1,.05,1.49,.11l.37,.05,.18,.03,.35,.03c.5,.03,1.01,.07,1.53,.1,4.13,.27,8.71,.43,14.93-1,.56,.78,9.42,.08,7.44,2.04,11.46-.61-2.71-1.36-1.74-2.34,17.65-2.66,41.5,3.23,66.89-.42,21.9-1.51,25.95-4.14,46.27-5.45,6.86,1.25-5.62,2.84-5.62,2.84,11.07,1.15,19.39,.94,29.82,.04-2.11,.68,.06,1.26,3.24,2.13,8.37-.2,5.59-2.84,16.63-1.69-1.89,.87-4.32,2.26-8.36,3.13,9.86-.72,19.6-2.17,29.81-2.88,2.71,1.36-6.16,2.06-9.76,2.95,11.47-.61,29.73-1.23,33.27-3.38l-7.36-.77c4.18-.1,2.15,1.85-.93,2.24-9.83,1.69-14.18-.75-14.74-1.53l7.27-.5c-7.47-4.58-29.2,.73-43.83,.47l6.1-3.33L811.47,.06c-3.19-.87-5.38-2.72,1.85-3.22-10.49-1.64-9.29,1.18-18.3-.65-.99-.29-.54-.45,.38-.58l-10.25,.99c2.01-.7-1.71-2.35,4.59-1.87-18.4-1.92-29.67,2.5-36.6-.03l1.54-.2c-25.53,1.12-2.47,2.44-21.62,5.31l-12.89-6.03-2.51,2.44c-2.63-.09-7.84-.27-6.88-1.25-9.8,1.67,1.67,1.06-4.02,2.64-12.68-2.22-34.95,1.04-37.81-2.85-4.55,1.86,12.12,1.43-1.41,2.72-1.93-2.09-5.84-1.91-10.72-1.45-1.3,.12-2.67,.24-4.09,.37-1.46,.12-2.93,.23-4.42,.29-3.02,.12-6.06,.08-9.81-.36,.78-1.06,4.98-1.4,7.04-1.6,1.01-.11,1.47-.22,.67-.42-.8-.19-2.9-.52-7.12-.91-1.47,.94-3.76,1.37-6.77,1.52l-.57,.02h-.15s.02,.09,.03,.13l.11,.29c.14,.38,.29,.77,.43,1.17,.28,.78,.56,1.56,.82,2.35,.53,1.58,1.03,3.2,1.54,4.88,1.87,6.45,4.9,15.68,6.9,19.2,1.42-.39,3.89,4.35,7.13,10.94,3.22,6.59,7.3,14.99,11.58,22.04-.67-.23,2.58,6.81,7.01,15.56,4.44,8.74,10.12,19.15,13.69,25.96l-.65-.13c2,.52,5.01,4.18,8.33,8.89,1.64,2.37,3.43,4.96,5.22,7.54,1.77,2.6,3.55,5.19,5.29,7.48-1.71,.59-3.48-.72-7.52-5.54l2.96,4.54,3.02,4.5c2.22,1.59,4.46,4.16,8.76,9.71l-3.36-.99c8.28,11.86,18.82,22.24,28.99,37.79,2.24-.46-4.43-15.1,8.54-.51-.41,1.24-1.49,3.01-4.96-.77,1.12,1.25,4.39,4.14,6.13,7.06-2.1-1.65-4.24-3.28-6.31-4.97,4.56,7.13,3.96,2.49,8,7.87-1.32,.88,2.23,4.6,.65,4.64-1.19-1.25-3.16-5.01-5.25-6.64,2.27,3.05,4.62,6.55,6.61,9.62,1.99,3.06,3.53,5.76,4.04,7.32,.27-1.09,1.63-1.35,5.35,2.8,9.46,10.85,1.76,4.97,6.63,11.89,3.09,1.94,8.41,9.53,10.31,8.15,2.8,3.15,2.49,4.49,3.13,6.11,1.46,1.2,3.68,3.38,6.14,5.86,2.45,2.48,5.13,5.27,7.57,7.59,4.85,4.67,8.45,7.78,6.45,3.88l-1.2-1.49c.28,.22,.58,.53,.92,.81l-.04-.04,.04,.04c9.3,7.97,18.07,17.07,26.88,26.15,2.17,2.3,4.43,4.52,6.65,6.75,2.23,2.23,4.47,4.44,6.71,6.62,4.51,4.33,9.17,8.41,13.86,12.24l-.55,.57c2.85,2.23,5.9,4.54,8.91,6.96,3.03,2.38,6.02,4.88,9.03,7.15,6.02,4.53,11.62,8.75,16.22,11.23,3.37,2.61,7.09,7.3,5.07,6.93,9.09,6.34,10.68,6.23,22.75,16.79-9.77-5.48,2.37,3.27-9.77-5.95,5.59,4.54,8.83,7.59,12.5,10.28,3.65,2.71,7.59,5.27,14.56,8.75-5.52-1.26,7.59,8.14,13.62,11.45l-7.59-6.82c3.28,2.02,6.29,3.99,9.18,5.96,2.93,1.91,5.75,3.79,8.58,5.7l-4.56,.26c5.81,4.63,11.66,8.53,17.61,11.71,2.96,1.62,5.89,3.13,8.79,4.57,1.45,.71,2.89,1.42,4.31,2.12,1.45,.66,2.88,1.32,4.3,1.97,5.68,2.59,11.09,5.17,16.19,8,5.14,2.76,9.92,5.87,14.23,9.73,7.73,2.05-13.48-8.75-6.31-7.36,11.65,6.85,22.62,16.46,26.41,18.45,1,.61,1.94,1.16,2.83,1.66,.9,.48,1.75,.9,2.56,1.29,1.61,.77,3.05,1.36,4.38,1.84,2.65,.96,4.85,1.45,7.08,1.94,2.23,.49,4.48,.98,7.24,1.92,2.78,.91,6.1,2.21,10.43,4.42-1.89-1.88-2.96-5.13,10.59-.06,3.03,1.49,5.45,2.75,7.19,3.92,1.74,1.16,2.82,2.17,3.27,2.92,.89,1.5-.79,1.99-4.89,.7-3.03-1.18-4.36-2.06-4.11-2.3-4.14-1.45-9.56-3.44-5.06-.3l1.99-.15c1.43,.93,3.6,2.03,5.97,3.17,2.37,1.14,4.93,2.37,7.16,3.45,4.47,2.18,7.63,3.89,5.31,3.77,9.82,3.12,4.63,.24-2.19-3.13,7.74,4.06,14.13,6.43,20.53,8.89,3.21,1.23,6.43,2.46,9.89,3.79,3.48,1.28,7.19,2.71,11.33,4.44-2.51-1.46-4.59-3.39-1.93-2.42,6.08,2.5,9.84,3.88,12.32,4.65,2.48,.77,3.7,.83,4.67,.83,1.95-.04,2.95-.6,11.44,1.99,4.56,2.27,3.44,2.81,3.34,3.34-.05,.26,.16,.52,1.47,1,1.31,.46,3.7,1.21,8.08,2.19,10.17,4.11,1.48,3.08-2.93,2.55,8.1,1.5,15.32,4,21.63,6.52,6.34,2.4,11.81,4.74,16.28,6.16l-8.53-1.56c5.1,.94,9.17,2.07,13.32,3.22l-4.25-3.14c4.79,1.67,8.92,2.81,8.63,3.55,5.36,.08-3.06-4.01,7.38-3.16,6.3,2.54,20.09,3.99,21.79,6.9-20.37-5.85,1.68,3.06-15.84-.87,3.44,.55,7.53,1.58,12.38,3.13,.67,.46-.82,.33-2.19,.14,2.4,.91,4.36,1.51,5.99,1.95,1.63,.44,2.92,.71,3.99,.87,2.14,.31,3.4,.16,4.69-.06,2.59-.44,5.31-1.11,15.55,1.18-2.91,.87,4.23,3.58,7.67,3.94-8.32-1.67-3.49-3.1,4.33-2.67,13,3.67,14.49,2.07,21.41,3.35-2.61-.64-5.23-1.2-7.82-1.91,2.93-.85,9.52,.4,18.81,1.56,.61,1.23-8.5-.68-5.29,.36,5.34-.37,11,1.3,17.19,3.06,6.2,1.66,12.91,3.5,20.21,3.71,6.52,1.92,.28,2.74,6.04,4.24,8.21,.1,12.52,1.09,16.94,2.16,2.21,.53,4.45,1.08,7.21,1.53,2.76,.45,6.04,.82,10.34,.82-4.71-2.37-5.6-1.99,6.56-2.68l-7.02-.34-3.51-.17-3.51-.25-14.03-1.02,18.22-.61c-8.4-1.01-17.89-.95-22.89-1.87,8.72-.51,7.77-.15,3.95-2.21,5.57,2.12,11.33,2.39,17.3,2.58,5.99,.09,12.21,0,18.77,1.62l-.85,4.66c4.98,.99,9.71,1.62,14.42,1.88,4.72,.23,9.4,.24,14.27,.23,4.87-.02,9.93-.02,15.39,.12,5.47,.04,11.35,.27,17.87,.88l-8.36-1.23c1.8-.85,5.83-.72,10.48-.42,2.32,.15,4.8,.32,7.23,.48,1.21,.07,2.41,.12,3.58,.14,1.16,0,2.29-.03,3.35-.1-.84,1.56,4.43,2.27,8.02,3.34-.41-1.19,19.17,.61,21.59-2.52l11.66,2.1c5.29,.22,9.44,.05,13.01-.31,3.57-.38,6.55-.9,9.5-1.58,5.91-1.3,11.69-2.64,21.83-2.6-6.06,1.86,3.2,2.76-10.38,4.3,6.79-.14,12.9,0,12.97-1.09,1,.21,2.67,.2,4.71-.03,2.04-.23,4.45-.59,6.93-.95,4.96-.71,10.2-1.37,13.36-.77,1.41-.42,2.32-1.05,3.84-1.6,.76-.28,1.66-.54,2.85-.74,1.19-.19,2.67-.36,4.56-.48,.85,.26,.02,.78,.02,.78-.02-.78,11.8-1.94,5.06-3.19,5.28,.84,11.56,.97,18.29,.73,3.37-.08,6.84-.44,10.35-.78,3.52-.35,7.08-.75,10.61-1.15,3.54-.4,7.06-.79,10.48-1.18,3.42-.46,6.75-.87,9.93-1.19,6.36-.64,12.13-.92,16.79-.46,7.28-1.38,15.31-2.89,23.17-4.38,3.94-.68,7.8-1.56,11.51-2.32,3.72-.75,7.28-1.48,10.57-2.14-.76,.62,.11,.78-2.42,1.09,4.63-.5,7.59-1.15,9.75-1.9,2.15-.8,3.51-1.68,4.94-2.56,2.87-1.77,6.03-3.57,16.49-5.02,11.1,.19-10.63,3.74-3.85,3.24,1,1.11,3.05,1.28,5.79,.91,2.75-.34,6.14-1.43,9.87-2.57,7.46-2.35,16.21-5.16,23.44-5.75l-3.24,1.24c5.48-.63,11.76-2.92,18.79-5.61,6.97-2.92,14.7-6.2,23.2-8.78,0,0-.67,.72,.15,.78,2.66-1.64,5.99-3.4,9.73-5.21,1.87-.91,3.84-1.83,5.89-2.75,2.05-.92,4.17-1.84,6.29-2.87,8.51-4.04,17.74-7.87,25.37-11.68-4.09,3.95-6.72,4.03-2.94,4.67,6.93-3.27-3.32-2.19,10.45-8.69,1.25-.23,2.84-.62,4.57-1.05,1.7-.48,3.53-1.01,5.28-1.46,3.5-.9,6.66-1.5,7.8-.81-4.36,2.05-8.68,4.19-13.07,6.17,3.97-.17,8.2-2.24,12.34-4.5,4.13-2.3,8.19-4.77,11.67-6.33l-.32,1.56c4.91-2.6,8.52-4.74,11.5-6.64,1.49-.95,2.83-1.84,4.08-2.71,1.23-.92,2.41-1.79,3.59-2.66,2.36-1.76,4.77-3.52,7.9-5.54,1.56-1.02,3.31-2.08,5.31-3.28,1.97-1.24,4.19-2.59,6.76-4.08l-2.59,.44c9.52-9.3,10.33-3.93,19.99-12.9l5.01,.54c3.47-2.55,9.21-7.51,15.67-12.84,3.27-2.62,6.53-5.59,9.82-8.37,1.64-1.39,3.27-2.76,4.86-4.1,.8-.66,1.59-1.31,2.36-1.94,.76-.65,1.5-1.29,2.23-1.92-1.32,1.84-3.23,3.87-5.44,6.06-2.2,2.2-4.71,4.56-7.3,6.94-2.56,2.43-5.35,4.67-7.94,6.9-2.6,2.21-5.07,4.31-7.19,6.18,3.51-2.43,9.51-6.52,14.85-10.64,5.28-4.21,10.02-8.27,11.33-10.2-2.58,2.28-5.6,5.47-8.62,7.09,1.74-2.05,3.68-4.16,5.83-6.32,1.07-1.08,2.21-2.17,3.38-3.29,1.15-1.15,2.34-2.31,3.59-3.49,2.5-2.36,5.2-4.77,8.1-7.25,1.47-1.22,2.91-2.55,4.43-3.86,1.51-1.32,3.08-2.66,4.7-4.01,.42,1.65,2.79,.77,6.33-1.55,3.53-2.34,8.04-6.31,12.96-10.56,.61-.53,1.23-1.07,1.85-1.61,.6-.56,1.21-1.13,1.82-1.69,1.22-1.13,2.45-2.27,3.67-3.39,2.45-2.25,4.88-4.45,7.2-6.45,4.52-4.14,8.64-7.49,11.67-8.88,9.53-11.77,19.72-22.67,29.81-34.59,1.28-1.48,2.56-2.96,3.85-4.45,1.25-1.52,2.51-3.06,3.77-4.6,1.26-1.55,2.54-3.1,3.82-4.67,.64-.78,1.28-1.57,1.92-2.36,.62-.81,1.24-1.62,1.87-2.43,2.49-3.26,5-6.59,7.53-10.01,2.43-3.48,4.87-7.04,7.3-10.71-5.49,3.83-4.07,1.68-1.95-1.52,2.12-3.21,4.77-7.6,2.16-8.01,2.06-3.51,3.53-5.9,4.56-7.47,.99-1.6,1.57-2.36,1.89-2.59,2.53-3.27,5.11-6.51,7.61-9.82l7.39-10.02c2.03-2.23,1.36-.38,.27,1.97-1.08,2.36-2.52,5.26-1.86,5.21,4.64-7.69,5.92-9.15,7.02-9.83,1.09-.69,1.92-.65,5.32-5.62-1.37,.67-1.14-.99,.01-3.95,1.13-2.97,3.27-7.19,5.86-11.64l-8.51,11.86c2.25-5.89,4.23-9.91,6.02-13.03,1.75-3.15,3.38-5.38,5.02-7.62,1.66-2.23,3.25-4.51,4.94-7.74,.85-1.61,1.72-3.46,2.63-5.66,.92-2.2,1.77-4.79,2.72-7.83-.58,2.65-1.11,5.33-1.73,7.99,1.1-3.07,2.77-7.4,4.75-12.32,.94-2.49,1.94-5.13,2.96-7.85,.51-1.36,1.02-2.75,1.54-4.14,.48-1.41,.97-2.82,1.45-4.24,3.94-11.31,6.92-22.9,7.01-29.52,1.21-2.01,3.39-4.52,2.03,1.05,5.02-14.7,8.57-31.69,11.41-47.83,2.83-16.17,4.89-31.5,7.71-43.31l.85,2.5c.25-2.9,0-5.49-.02-8.23-.01-.69-.01-1.38,0-2.09,.01-.37,.02-.69,.06-1.11,.05-.58,.11-1.17,.16-1.77,.21-2.41,.6-5.01,1.13-8.03,.47,.39,.95,3.56,1.34-1.03-.02-1.23-.07-3.4-.12-6.14-.03-1.32-.06-2.79-.09-4.35-.01-.77-.03-1.57-.04-2.39,0-.05,0-.11,0-.15h-.17s-.34,.01-.34,.01l-.69,.02c-.46,0-.92,.02-1.39,.03-1.82,.03-3.71,.06-5.61,.08-1.87,.02-3.7,0-5.59,.05-1.86,.03-3.68,.04-5.42,.02-.87-.02-1.72-.04-2.55-.05-.42-.02-.82-.03-1.23-.05l-.57-.03-.36-.03,.4-.08,.67-.08,1.36-.17,2.79-.34,5.83-.67c-3.23-.1-6.42-.17-9.55-.22-1.92-.03-3.79-.06-5.61-.09-3.33-.02-6.49,.05-9.52,.17-6.06,.25-11.62,.73-17.03,1.29-10.81,1.12-21.03,2.53-33.5,2.94,.06-3.52-23.34-4.67-35.03-5.24l.41-.5c-34.64-.44-58.84,2.92-90.92,4.3-9.75-1.87-26.13-2.29-44.05-2.49-8.96-.09-18.31-.18-27.41-.28-14.14-.26-27.9-.52-40.29-.75,.42,1.38,.78,2.58,1.14,3.78-1.13-4.34,.04-3.06,1.81,.18,1.79,3.29,4.17,8.51,5.79,13.12,.36,1.49,.74,3.11,1.23,4.83,.41,1.71,.88,3.49,1.35,5.27l.16,.64,.11,.4,.22,.79c.15,.53,.3,1.05,.44,1.57,.27,1.04,.54,2.06,.79,3.01,.92,3.84,1.24,6.73-.43,6.36l-.27-2.54c-1.2,2.9-1.13,7.88-.96,13.6,.19,5.71,.49,12.18,.23,17.84,1.4,.67,2.76,1.36,4.13,2.06-1.89,7.51-3.43,16.02-5.32,24.82-1.86,8.8-4.13,17.89-7.01,26.38-2.85,8.49-6.26,16.4-9.97,22.75-.87,1.62-1.84,3.09-2.78,4.48-.94,1.38-1.83,2.69-2.76,3.85-1.91,2.29-3.69,4.16-5.41,5.44-3.28,6.51-8.96,13.49-13.03,19.57l-1.42-1.82c-3.54,3.55-6.61,6.67-9.72,9.42-.76,.7-1.52,1.39-2.26,2.08l-1.11,1.03-1.15,.98c-1.52,1.31-3.03,2.61-4.57,3.93-1.5,1.36-3.18,2.59-4.84,3.97-1.69,1.34-3.37,2.83-5.3,4.24-1.89,1.45-3.9,2.98-6.04,4.63-2.21,1.58-4.56,3.27-7.1,5.09l3.28-4.22c-5.77,3.98-8.69,7.63-11.51,11.39-1.38,1.91-2.86,3.65-4.64,5.45-.9,.89-1.88,1.78-3,2.65-.56,.44-1.15,.87-1.79,1.3-.64,.42-1.33,.81-2.06,1.21l-5.13-1.1-4.14,2.18c-1.39,.72-2.83,1.34-4.24,2.01-2.86,1.29-5.69,2.63-8.59,3.84l-8.74,3.52c-1.45,.6-2.92,1.15-4.4,1.69l-4.42,1.64c-5.84,2.29-11.81,4.27-17.6,6.63-2.93,1.11-5.86,2.21-8.74,3.43-2.89,1.21-5.75,2.49-8.62,3.74,.24-.61,.67-1.7,4.49-3.1-5.65,1.76-16.74,4.61-25.86,7.03-4.53,1.31-8.59,2.44-11.18,3.54-2.58,1.1-3.69,2.13-2.37,2.99-.51-1.44-6.82,.13-14.74,2.28-7.91,2.34-17.43,5.15-24.02,7.09l1.68-2.6c-2.7,1.27-4.75,2.22-6.56,3.01-1.8,.8-3.35,1.46-5.05,2.08-1.7,.62-3.56,1.2-5.98,1.85-2.42,.67-5.42,1.32-9.4,2.1-3.85,.28-3.6-1.27,1.53-1.45-12.83,.67-9.55,3.68-25.14,4.42l5.56-2.14c-6.54,.74-9.53,1.26-11.76,1.93-2.23,.67-3.7,1.46-7.22,2.65-4.08,.88-10.33,1.4-15.81,1.47-5.5-.01-10.23-.5-11.28-1.41-.83,.69-3.01,1.6-5.97,2.34-1.48,.37-3.14,.71-4.93,.95-1.79,.21-3.7,.33-5.65,.32-1.1-.69,1.69-1.35,3.09-1.67-11.06-.05-19.18,1.25-26.5,2.1-3.65,.46-7.1,.89-10.58,1.11-3.48,.23-7.01,.25-10.82-.21-.34-.73-1.34-1.07-2.61-1.25,8.76-.18,16.66-.64,22.21-.82,5.55-.21,8.75-.3,8.09-.18-.13-2.05-14.24-1.73-3.18-5.11-5.61,1.04-13.21,2.67-21.16,3.93-7.95,1.16-16.24,2.03-23.15,1.75-.67-.19-1.33-.38-1.84-.69l1.42-.25c-3.18-.16-6.03,.07-8.7,.45-4.4-.28-7.2-.49-11.42-.46-.41-.42-1.63-.67-3.33-.81-1.7-.17-3.9-.25-6.26-.27-4.72-.05-10.12,.1-13.64,.04,.56,2.25-8.67,1.85-.04,3.74-1.12-.17,1.34-.26,6.03-.34,1.06-.06,2.31-.09,3.01-.22-.14,.06-.3,.13-.48,.2,4.63-.06,10.67,0,17.54-.18-5.56,1.27-11.4,2.16-19.2,.88-3.63,1.43-7.64,2.9-9.91,3.58-4.82-1.66-11.87-3.05-18.02-4.25-6.16-1.16-11.4-2.38-12.65-3.38-5.38,.06-11.24,.09-17.2-.07-5.96-.18-12.04-.36-17.89-.45-11.66-.39-22.39-.26-29.33,1.05-6.16-.11-6.88-1.95-9.08-2.85,3.56-.05,7.73,.46,9.69,.05-3.07-.05-6.86-.29-10.86-.58-4.01-.27-8.22-.77-12.16-1.08-3.94-.34-7.6-.56-10.48-.58-2.87-.06-4.97,.14-5.81,.76-15.07-3.62,8.97-1.4-12.05-4.08l2.97-.47c-2.53-.66-4.99-1.33-7.41-1.93-2.42-.6-4.8-1.12-7.14-1.6-2.34-.48-4.65-.88-6.93-1.28-2.27-.43-4.51-.8-6.74-1.15-2.22-.34-4.43-.65-6.63-.93-2.2-.27-4.38-.53-6.55-.84-4.34-.58-8.66-1.1-13.03-1.64-8.68-1.25-17.55-2.52-26.85-4.95-2.33-.59-4.69-1.22-7.09-1.91-2.38-.75-4.8-1.57-7.26-2.45s-4.96-1.83-7.51-2.86c-2.52-1.09-5.09-2.28-7.7-3.55,2.91,1.36,4.38,2.03,4.84,2.71-3.07-1.2-6.16-2.37-9.26-3.52l-2.33-.86-2.32-.91c-1.55-.6-3.1-1.2-4.65-1.81-1.56-.59-3.11-1.18-4.67-1.78l-2.34-.88-2.32-.94c-3.11-1.23-6.22-2.46-9.34-3.7-3.13-1.21-6.2-2.58-9.32-3.84l-4.67-1.93c-1.56-.65-3.08-1.36-4.63-2.03-3.08-1.37-6.18-2.7-9.25-4.1l-9.14-4.34c-12.11-5.93-23.95-12.38-35.17-19.58-11.18-7.24-21.72-15.23-31.21-23.99-10.93-9.75-13.2-9.45-20.92-14.32-.27-1.29-.49-2.62-.72-3.93l-6.54-4.21-6.43-4.4c-8.4-7.05-13.69-15.11-19.16-23.68-1.34-2.17-2.71-4.36-4.17-6.58-1.44-2.23-2.9-4.53-4.55-6.83-1.62-2.32-3.31-4.73-5.24-7.14-1.86-2.47-3.94-4.96-6.21-7.57,.17,1.3,.38,2.57,.59,3.85-1.35-2.07-3.03-4.79-4.9-7.6-.93-1.41-1.82-2.9-2.73-4.34-.9-1.45-1.81-2.88-2.59-4.27-3.24-5.51-5.35-9.99-4.16-9.69-.75-.74-3.02-2.08-3.99-5.92l1-.83c-4.22-6.9-8.16-14-11.79-21.29-2.93-8.98-1.38-8.72-.41-9.43,.5-.35,.89-.96,.61-3.06-.24-2.11-1.17-5.73-2.93-12.2-1.6-4.73-4.15-11.41-6.04-16.53-.95-2.55-1.76-4.71-2.35-5.97-.3-.64-.53-1.01-.71-1.14-.18-.16-.32,0-.38,.42,.34,3.92,.88,10.36-.28,10.91-.84-3.02-1.6-6.07-2.24-9.14-1.97-.57-4.07-2.75-5.72-1.7-.42,.21-.8,.81-1.12,1.59-.32,.78-.6,1.84-.78,3.24-.36,2.8-.39,6.98,.33,13.06,2,5.33,4.21,10.52,6.58,15.6-.06,1.89-.06,3.77-.08,5.68-1.51-4.45-2.9-8.95-4.18-13.49,.49,8.22,3.53,12.67,6.37,17.65-.49,1.59-.28,4.02,.54,7.28,3.1,4.7,6.24,9.31,9.57,13.75-.5,2.42-5.67-5.54-1.85,4.85,2.4,3.13,2.34,1.1,2.5-.3,.16-1.41,.53-2.2,3.71,3.24,2.03,7.81-.26,6.45,5.42,13.98-.2,1.61-1.7,.18-3.82-2.9,1.24,1.71,2.52,3.77,3.9,5.89,1.36,2.13,2.72,4.38,4.12,6.46,2.73,4.2,5.47,7.78,7.44,9.05,1.36,4.04,5.42,9.77,8.84,14.53,3.44,4.75,6.16,8.62,4.51,9.39,1.15,.77,3.99,3.2,7.13,6.15,3.25,2.87,6.74,6.31,9.37,9.04-3.1-1.88-3.49-1.5-2.4,.16,.55,.83,1.46,1.97,2.59,3.31,1.12,1.34,2.46,2.86,3.91,4.39,1.43,1.54,2.92,3.15,4.3,4.69,1.39,1.53,2.72,2.95,3.76,4.22,2.08,2.52,3.06,4.35,1.62,4.51,2.52,1.14,5.59,3.16,8.95,5.82,1.69,1.32,3.52,2.71,5.38,4.23,1.87,1.51,3.78,3.15,5.81,4.73,7.95,6.54,16.98,13.32,24.94,17.82-.99-.36-2.96-1.05-4.14-2.15,4.01,3.2,6.54,5.34,8.65,7.3,2.12,1.95,3.79,3.76,6.39,5.82,1.42-.95,5.56,.61,10.37,2.72,2.44,1.01,5.04,2.16,7.55,3.23,1.26,.53,2.48,1.06,3.67,1.51,1.19,.44,2.33,.83,3.37,1.14,4.65,4.38,2.57,4.26-.47,3.57-3.04-.67-7.01-1.95-6.04,.3,.37-1.25,5.44,.9,10.05,2.86,2.3,1,4.54,1.86,6.01,2.26,1.47,.4,2.19,.33,1.5-.63,3.77,3.06,5.49,4.23,6.65,5.21,1.17,.95,1.8,1.71,3.43,3.97,3.26-2.79,8.26,3.45,16.51,4.5,5.85,3.78,6.33,4.94,7.09,5.84,.76,.9,1.85,1.51,9.08,3.95,3.1,1.97,1.41,1.95-1.07,1.44-2.48-.52-5.74-1.53-5.74-1.53Zm353.04,48.2s0,.04,0,.04c-3.06,.17-5.68,.24-7.35,.29,1.53-.06,3.65-.1,7.35-.33Zm29.91-1.12c-3.65,.07-8.18,.34-12.98,.47-1.08-.74,.03-1.58,3.04-1.63-1.61,.6,5.45,.73,9.94,1.16Zm-63.3-14.07c4.68-.29,6.25,.15,6.9,.59-2.21,.08-4.8,.11-8.19,.26-.14,.08-.42,.18-.55,.27,.45-.43,.96-.83,1.85-1.12Z"/><path class="cls-2" d="M1453.74,282.81c-.68,.05-1.05,.14-1.94,.16,.96,.2,1.87,.38,2.8,.52,.57-.24,1.16-.47,1.67-.7-.85,0-1.73,.02-2.53,.02Z"/><path class="cls-2" d="M794.88,241.14l.4,.49c-.3-.44-.57-.85-.69-1.18,.21,.38,.16,.43,.29,.69Z"/><polygon class="cls-2" points="1906.59 154.65 1906.08 154.37 1904.97 156.93 1906.59 154.65"/><path class="cls-2" d="M698.85,108.23c0-.37-.17-.99-.68-2.11-.07,.16,.26,1.04,.68,2.11Z"/><path class="cls-2" d="M663.81,47.11c-1.3-3.06-2.56-6.14-3.8-9.23,1.51,4.05,2.76,6.94,3.8,9.23Z"/><path class="cls-2" d="M645.32,4.95c-.7-.68-1.18-1.08-1.61-1.43,0,.02,0,.04,0,.05,.54,.48,1.08,.94,1.61,1.38Z"/><path class="cls-2" d="M1303.32,490.96c.72,.11,1.43,.2,2.08,.25,4.9,.4,1.59,0-2.08-.25Z"/><path class="cls-2" d="M1057.72,419.44c2.62,.83,5.24,1.56,7.95,2.48-4.12-1.99-7.29-3.59-7.95-2.48Z"/><path class="cls-2" d="M1588.1,506.02s0,.02-.03,.04c.61-.03,1.15-.06,1.76-.08l-1.73,.04Z"/><path class="cls-2" d="M1076.55,426.83c-3.99-2.28-7.51-3.74-10.88-4.9,3.36,1.67,7.3,3.68,10.88,4.9Z"/><path class="cls-2" d="M870.25,4.93l2.63,.09c-.04-.15,.11-.27,.31-.36l-2.94,.27Z"/><path class="cls-2" d="M873.19,4.66l2.92-.27c-1.34,0-2.5,.02-2.92,.27Z"/><path class="cls-2" d="M882.24,3.83l-6.14,.57c2.12,0,4.75,.08,6.14-.57Z"/><path class="cls-2" d="M798.07,3.89l-.83,.82c.45-.17,.74-.43,.83-.82Z"/><path class="cls-2" d="M776.14,4.12c5.23,.19,13.13,1.74,20.43,1.23l.68-.65c-3.43,1.21-16.14-1.96-21.11-.58Z"/><path class="cls-2" d="M632.79,3.77c-2.66-6.36-3.08-6.65-2.91-5.25,.17,1.37,.99,4.47,.56,4.02,2.14,4.51,3.52,7.14,3.9,7.47,.41,.35-.17-1.67-1.55-6.24Z"/><path class="cls-2" d="M890.19,328.23l-2.03,1.01c6.25,4.46,.54-.59,2.03-1.01Z"/><polygon class="cls-2" points="960.88 364.38 955.35 359.36 951.38 359.06 960.88 364.38"/><path class="cls-2" d="M993.52,400.7l-3.06-1.41c1.92,.94,3.83,1.92,5.76,2.84l5.82,2.72c-2.84-1.39-5.72-2.68-8.53-4.14Z"/><path class="cls-2" d="M1669.54,518.73l-2.61-2.2c-5.08,1.11-5.83,4.06,2.61,2.2Z"/><path class="cls-2" d="M1953.94,425.22c1.73-.29,4.53-1.35,7.38-2.8,2.85-1.46,5.77-3.27,7.63-5.24-2.88,1.8-6,3.2-8.65,4.54-2.67,1.32-4.95,2.48-6.35,3.5Z"/><path class="cls-2" d="M1915.52,74.15c-.07-1.92-.09-3.82-.2-5.72-.12,3.55-.32,7.11-.66,10.66,.28-1.65,.62-3.29,.87-4.94Z"/></g></g><g class="cls-5"><path class="cls-3" d="M600.02,975s491.44-127.95,640.02-383.71C1505.25,134.79,1309.97-2.09,1309.97-2.09L1551.72,0s121.85,377.54-107.91,698.42c-229.76,320.88-278.53,280.98-278.53,280.98l-565.25-4.4Z"/><g><path class="cls-4" d="M600.07,969.68c-1.76,.67-.78,2.24,4.07,1.97l3.46-2.62-7.53,.65Z"/><path class="cls-4" d="M632.66,974.84c5.71-1.24,12.31-3.44,8.63-5.9-5.67,2.5-7.03,1.43-13.13,4.41-4.86,.27-8.46-.92-7.64-1.88-1.72,.67-7.53-.64-10.16,1,6.3,2.1,14.3,2.24,22.66,.62,1.79,.6,.04,1.28-.37,1.76Z"/><path class="cls-4" d="M1345.24,836.47c-1.38,1.77-1.77,2.67-1.65,2.91,1.19-1.72,2.15-3.15,1.65-2.91Z"/><path class="cls-4" d="M1378.93,798.98c-.73,.8-1.32,1.5-1.96,2.23,.89-.74,1.69-1.56,1.96-2.23Z"/><path class="cls-4" d="M698.09,968.96c-1.65,.11-3.01,.35-4.27,.66,1.35-.1,2.66-.19,4.01-.25,.07-.14,.14-.27,.26-.41Z"/><path class="cls-4" d="M713.42,950.5c.02-.18-.12-.24-.14-.38-.47,.41-.59,.62,.14,.38Z"/><path class="cls-4" d="M599.88,974.44l1.51-.53c.05-.46,.11-.9,0-1.31l-1.51,1.83Z"/><path class="cls-4" d="M1436.59,727.09c-.12,.13-.16,.18-.27,.31-1.21,2.11-.45,.98,.27-.31Z"/><path class="cls-4" d="M700.67,969.27c1.34-.02,2.71-.02,4.07,.01-1.85-.09-3.11-.09-4.07-.01Z"/><path class="cls-4" d="M1539.89,540.28c-.53,.27-1.12,.95-1.71,1.68,.24,.01,.68-.34,1.71-1.68Z"/><path class="cls-4" d="M1464.14,680.1l2.42-3.12c-1.03,1.19-1.79,2.21-2.42,3.12Z"/><path class="cls-4" d="M1562.43,460.7c.72-2.02,1.22-2.64,1.67-5.54-.17,.24-.32,.47-.49,.79,.02,1.1-.21,2.49-1.19,4.75Z"/><path class="cls-4" d="M1580.06,376.74c-.24,.42-.46,1-.68,1.49-.09,.85-.2,1.83-.29,2.71l.98-4.2Z"/><path class="cls-4" d="M951.92,846.83c-1.95,.32-3.31,.25-4.44,.06,1.91,.79-8.99,7.13,4.44-.06Z"/><path class="cls-4" d="M698.13,970.22c.5-.56,1.23-.84,2.54-.95-.98,.02-1.92,.06-2.83,.1-.25,.33-.31,.65,.3,.85Z"/><path class="cls-4" d="M1546.18,452.84c1.25-4.27,2.38-8.57,3.58-12.85-1.13,3.56-2.36,8.25-3.58,12.85Z"/><path class="cls-4" d="M1345.27,393.58l-.83,3.04c.47-1.12,.79-2.18,.83-3.04Z"/><path class="cls-4" d="M1557.82,401.23c1.22-2.19,2.14-4.59,2.92-7.11-.07-.58-.09-1.22-.28-1.63l-2.64,8.73Z"/><path class="cls-4" d="M947.44,846.88s.04,0,.04,0c0,0,0-.01-.04,0Z"/><path class="cls-4" d="M869.12,890.9c11.84-5.34,4.35-5.17,6.15-7.85,13.7-7.22,7.41-1.03,12.83-1.88,8.45-4.79,13.94-10.49,20.48-13.49,.69,.2,2.03-.26,.82,1.01,8.15-6.58,27.15-13.57,36.32-21.74,.91-.17,1.42-.16,1.72-.06-2.4-.43-3.35-1.63-3.5-2.76,5.13-2.71,8.62-6.68,11.46-5.98-3.16,1.62-3.06,2.44-4.24,3.76l4.97-3.59c6.14-.12-6.87,4.74-5.92,6.56,10.08-6.35,21.11-14.94,29.39-18.73,1.49,.71-3.01,3.55-6.47,5.64-3.45,2.1-5.8,3.56,.11,1.71l-12.86,5.82c5.75-.66,3.84,.28,1.84,1.32-2,1.02-4.09,2.13,1.37,1.83,8.33-4.12,12.76-6.87,17.1-9.73,4.35-2.86,8.73-5.64,16.93-9.97,2.85-3.4-2.31-1.24,.54-4.64,5.36-3.85,9.29-6.18,12.52-7.55,3.21-1.39,5.69-1.88,7.93-2.34,4.48-.91,8.25-1.4,15.49-8.1,1.64-2.11,2.4-4.15,4.33-6.39,.96-1.12,2.22-2.29,4.02-3.55,1.78-1.28,4.11-2.66,7.23-4.17l-2.25,5.15c7.61-4.82,9.16-7.12,10.87-9.38,1.71-2.25,3.65-4.31,11.99-8.8-2.05,2.92-11.11,8.79-8.65,7.58,11.48-4.86,6.17-6.28,13.83-11.67l3.16,1.1c15.43-11.44,31.14-25.73,47.17-39.62-.39,1.37-2.67,4.34,1.71,1.82,2.5-2.25,5.03-4.54,7.6-6.85,2.57-2.31,5.2-4.61,7.87-6.91,2.62-2.35,5.28-4.7,7.97-7.02l4.04-3.49,4-3.55c10.77-9.33,21.27-18.87,30.8-27.84l4.98-8.94c1.58-1.68,3.67-2.49,2.34-.31,7.34-7.09-.76-1.38,1.73-5.68,3.63-4.47,6-4.9,4.15-1.67,1.26-1.87,2.73-3.88,4.22-6.1,1.49-2.23,3.08-4.59,4.77-7.03,.85-1.22,1.71-2.46,2.59-3.72,.85-1.28,1.72-2.58,2.6-3.89,1.75-2.62,3.57-5.27,5.41-7.91,7.13-10.73,14.45-21.42,20.35-28.92l-1.32,3.53c8.58-12.18,4.28-16.65,12.9-27.23l-.92,2.44c4.17-6.68,8.09-13.74,11.99-20.79,3.94-7.03,7.63-14.19,11.33-21.08,3.74-6.87,7.23-13.6,10.78-19.8,3.58-6.18,6.97-11.96,10.44-16.96-.92-5.52,14.91-27.5,11.43-31.36,4.78-7.7,6.83-10.31,9.18-13.79,2.32-3.5,4.87-7.9,10.63-19.27,2.79-6.2,1.14-10.49,3.87-18.42l2.36,.73,1.74-11.56,4.96-4.59,2.15-7.61c-1.23,2.9-3.35,5.87-3.85,5.17,1.59-5.97,4.65-12.81,7.32-18.23,2.66-5.42,5.11-9.35,5.75-9.29,1.31-4.69,2.41-9.46,3.61-14.18,.58-2.37,1.19-4.72,1.74-7.1l1.62-7.13c.75,.9-.31,5.69-.88,9.57,2.17-15.64,3.32-1.95,5.28-16.3-1.09,1.68-1.1-1.4-1.51-1.86,1.67-3.22,3.64-8.73,5.45-14.92,.86-3.11,1.69-6.38,2.46-9.62,.38-1.62,.76-3.22,1.09-4.8,.3-1.58,.59-3.13,.87-4.6l1.12,2.65c.67-2.64,1.33-5.31,1.98-8.03,.32-1.36,.65-2.72,.95-4.1,.28-1.38,.57-2.78,.85-4.17,.55-2.8,1.11-5.63,1.67-8.48,.54-2.86,.98-5.76,1.47-8.68,1.02-5.82,1.79-11.78,2.67-17.76,.45-2.99,.76-6.02,1.17-9.04,.39-3.02,.81-6.05,1.13-9.1-.87,4.33-2.09,5.86-2.89,5.45-.82-.41-1.29-2.78-1.05-6.34l2.91-2.54c-1.08-4.77-1.82,7.3-2.71-2.32,.69-4.49,1.51-5.95,2.3-5.61,.79,.34,1.49,2.48,1.59,5.13,.16-3.71,.1-7.44,.15-11.16,.83-.59,1.01,2.05,1.94,2.82-.61-2.35,.51-7.08,1.28-12.13,.4-2.52,.82-5.11,.89-7.5,.06-2.39-.12-4.57-.76-6.24l.8-.61c.37-12.33,.04-21.33-.57-29.73-.15-2.1-.3-4.16-.46-6.23-.2-2.07-.41-4.15-.61-6.28-.19-2.13-.4-4.31-.69-6.58-.26-2.27-.52-4.64-.8-7.15-1.14-.07-1.84-2.07-2.57-4.76-.37-1.34-.73-2.86-1.2-4.4-.49-1.53-1.04-3.07-1.72-4.48-.76-7.32-1.67-15.08-3.07-23.17-1.37-8.1-3.41-16.5-6.39-24.99-1.26-2.91-2.15-4.51-2.75-5.38-.59-.87-.91-1.01-1.15-.95-.49,.13-.71,1.07-2.31-1.33,.83-.81-.51-5.32-1.46-8.65-1.02-3.29-1.6-5.42,.95-1.44-4.48-9.86-7.8-15.97-11.8-22.5-1.02-1.62-2.04-3.29-3.23-5-.58-.86-1.19-1.74-1.81-2.66-.65-.9-1.32-1.83-2.02-2.79-1.39-1.94-2.99-3.97-4.76-6.19-.91-1.1-1.83-2.26-2.85-3.44-.51-.59-1.04-1.2-1.57-1.81-.27-.31-.54-.62-.81-.94-.18-.19-.29-.28-.45-.43,.02,.19,.05,.39,.09,.58,.1,.28,.3,.68,.44,.99,.3,.66,.57,1.26,.76,1.73,.38,.96,.41,1.43-.4,.96-.41-.46-.81-.96-1.2-1.47l-.57-.78-.28-.39-.16-.24c-.41-.63-.72-1.26-.91-1.79-.34-.99-.11-1.55,.53-1.55l.56,.33c-2.34-1.76-4.92-4.37-6.8-6.19l-.62-.6-.29-.27-.14-.13-.07-.06s.1,0,.15,.01c.87,.08,1.74,.18,2.59,.29,1.71,.21,3.35,.47,4.81,.73,1.46,.27,2.74,.55,3.81,.82,.53,.14,1.02,.27,1.45,.4l.32,.09,.15,.05,.08,.02,.29,.02c.78,.06,1.56,.13,2.33,.19,12.38,.99,23.91,1.47,33.13-.13l-1.32,.2,24.37-2.01c11.2,.45-6.73,1.48,1.55,2.82,26.3-3.19,41.51,.85,63.16-1.24,8.35,3.09,23.21,3.12,38.8,2.87,7.8-.12,15.78-.31,23.22-.22,3.72,.05,7.31,.17,10.67,.4,.84,.07,1.67,.13,2.48,.2,.41,.04,.81,.08,1.2,.12l.59,.06,.29,.03c.09,.01,.23,.02,.2,.03,.19,.17,.32,.37,.34,.61,.14-.47,.23-.95,.27-1.42,.79-.69,1.28-.48,1.24-.06-.2,.7-.67,1.41-.75,1.7,.47-.36,.67-.82,.83-1.25,.17-.42,.29-.82,.74-.7,.16,.34,.32,.71,.47,1.09l.26,.71,.07,.18,.15,.48,.33,1.1c.88,2.93,1.71,5.89,2.51,8.88,1.59,5.97,3.04,12.04,4.36,18.16,2.65,12.25,4.8,24.75,6.6,37.33,3.6,25.17,5.74,50.66,7.45,75.63,.35,4.56,1,7.45,1.8,9.59,.8,2.14,1.74,3.51,2.6,5.05,.87,1.54,1.62,3.24,2.06,6.02,.44,2.78,.58,6.64,.05,12.47l-3.03-6.39c2.79,18.36,3.43,37.33,3.43,56.16,0,18.84-.64,37.55-.34,55.73-.5-2.2-1.28-2.3-1.09-5.83-2.17,7.54-1.95,28.21-.44,28.48-.65,5.62-1.52,1.19-2.6,4.58-.89,3.77-.79,8.6-.7,13,.1,4.4,0,8.33-1.17,10.25-.39,.65-.37-2.21-.35-3.62,.15,2.53-.51,8.31-1.04,12.88-.51,4.57-.7,7.95,.72,5.73-1.37,6.68-2.19,13.13-2.88,19.26-.8,6.11-1.58,11.89-3.18,17.11,.55,3.69-.79,9.38-1.97,14.46-1.23,5.08-2.21,9.58-.73,11.05-.84-.43-1.72,.78-2.63,2.96-.92,2.18-1.85,5.33-2.67,8.8-.42,1.74-.8,3.56-1.16,5.38-.39,1.81-.74,3.63-1.05,5.37-.61,3.47-1.02,6.63-1.13,8.83-.32-3.05-3.02,6.94-3.62,3.29-1.26,4.73-2.29,9.31-2.77,12.55-.52,3.23-.42,5.16,.71,4.59-2.33,4.03-3.83,8.3-5.14,12.51-1.29,4.21-2.2,8.42-3.07,12.4-.94,3.95-1.87,7.65-3.07,10.86-.6,1.6-1.28,3.08-2.07,4.4-.81,1.31-1.75,2.46-2.84,3.42-7.99,28.01-17.31,53.48-28.18,77.42-2.64-2.34,12.04-26.42,8-27-2.14,5.84-4.05,11.07-5.85,15.99-.9,2.46-1.72,4.87-2.6,7.21-.9,2.33-1.79,4.62-2.68,6.91-.9,2.28-1.82,4.56-2.78,6.86-.96,2.3-2.06,4.58-3.18,6.93-2.28,4.69-4.76,9.64-8.02,14.9-3.55,5.34,.4-3.93,.91-6.1-2.71,5.59-5.51,11.02-8.44,16.28-3.02,5.2-6.01,10.31-9.05,15.29-3.11,4.93-6.13,9.83-9.07,14.68-3.02,4.8-5.89,9.61-8.53,14.51-.24-.24,.77-2.44,1.78-4.47-2.26,3.73-6.14,8.08-4.5,8.61l2.06-3.74c5.97-4.41-5.83,17.07-5.3,18.48,.56-8.79-13.9,17.19-11.76,4.11-1.45,2.53-2.95,5.92-1.67,6.03-2.78,3.3-4.1,4.02-2.55-.24-4.26,6.64-5.21,9.09-6.16,11.32-.94,2.23-1.85,4.25-6.13,9.97-.61-.51,.86-3.01,.98-4.75-3.05,6.72-6.13,13.49-13.85,22.79,.05-.87-1.28-.12,.87-3-1.52,2.1-2.93,4.16-4.27,6.18-1.36,2.01-2.65,3.99-3.9,5.95-2.5,3.92-4.84,7.77-7.26,11.64-2.43,3.86-4.89,7.78-7.78,11.73-2.88,3.96-6.08,8.03-9.87,12.29,1.39-7.42-5.64,5.41-8.73,4.51l-6.9,10.1,4.19-2.93c-6.73,8.31-10.86,17.14-17.51,23.59l4.09-6.92-12.28,15.85,8.08-8.05c-5.69,9.35,3.66,1.5-6.04,12,.79-1.23-.89,.86-3.45,3.6-2.56,2.73-5.95,6.16-8.43,7.72,0,0,.02-.03,.02-.03-2.7,4.66-5.44,9.5-11.25,14.95-2.07,.92-1.4-3.42-2.76-2.83-.79,2.77-4.75,7.63-8.89,12.56-4.18,4.89-8.46,9.93-9.7,13.28,1.02-2.06-.05-3.2-.78-2.88-.49,1.53-.95,3.09-1.46,4.61-3.87,3.16-4.6,3.47-4.96,2.03-10.48,10.56,6.01-.83-7.32,10.89,.85-1.11,.16-.85,1.93-3.16-12.89,12.18-23.16,25.33-35.97,35.44-2.81,.43-.22-1.97,2.21-4.44,2.45-2.44,4.88-4.76,2.01-3.84-8.34,8.15-16.88,16.67-25.89,24.5l-3.38,2.93c-1.16,.92-2.32,1.84-3.47,2.76-1.16,.91-2.33,1.82-3.48,2.73-1.2,.84-2.39,1.68-3.58,2.52-4.75,3.37-9.73,6.18-14.73,8.41,1.29-.44,2.53-1.03,3.81-1.54-.2,1.27-1.27,2.34-2.96,3.16-1.71,.76-3.94,1.52-6.48,1.94-5.04,.99-10.96,1.4-15.25,1.59,2.2,.02,2.91-2.16,2.32-1.66-.42,0-.75-.11-1.13-.14-.39-.03-.7-.12-1-.2-.35-.05-.54-.17-.79-.24-.11-.04-.13-.07-.21-.09-.01,0-.05-.01-.02,0-.12,.26-.35,.68-.54,1-.21,.34-.43,.68-.66,1.01l-.09,.12-.02,.03c-.31,.46,2.65-4,1.4-2.11h0s0,0,0,0l.03,.02,.1,.07c.07,.05,.13,.1,.2,.16l-3.73-1.35c-13.68-.16-28.66,1.16-49.09,2.15l2.95-1.07c-9.22-1.04-24.29-.75-34.25-1.32-2.97,1.06-8.66,.84-5.21,2.46-30.67-6.45-58.63,2.87-85.84-2.51,3.26,.01,7.78-.89,5.18-.92l-23.23,.82c1.82,1.86,3.04,1.14,7.9,2.62-2.95,1.07-9.51,1.87-15.26,1.83,10.45-1.14-.07-2.97-4.57-4.04,.75,.57-.8,1.19-.42,1.76-12.1-3.38-2.06,3.7-18.6,1.36l.88-.96c-6.2,.45-11.92,1.69-18.6,1.36-2.75-2.16,6.6-.95,7.04-2.7-9.39,.05-18.55,3.91-27.03,1.71,3.99-.56,9.73-.53,13.72-1.09-9.23-2.58-10.31-1.95-17.18-2.41l.68,.06-15.88-1.26,4.04,.71c-11.79,5.48-23.93,.83-39.78,4.36,15.41-3.34,2.56-1.98,3.75-4.39-4.04-.71-10.17-1.51-8.42-2.18-7.49,1.9-12.47-1.64-23.05,1.14-.47-.78-8-.14-6.3-2.08-9.73,.54,2.29,1.38,1.46,2.35-15.01,2.55-35.2-3.51-56.79-.02-18.6,1.36-22.06,3.97-39.32,5.14-5.81-1.29,4.79-2.8,4.79-2.8-9.39-1.22-16.45-1.07-25.31-.24,1.8-.67-.04-1.26-2.74-2.16-7.1,.15-4.77,2.8-14.13,1.58,1.61-.86,3.69-2.23,7.12-3.08-8.38,.65-16.66,2.04-25.33,2.68-2.29-1.38,5.25-2.02,8.31-2.89-9.74,.54-25.25,1.04-28.27,3.16l6.24,.82c-3.55,.08-1.81-1.86,.81-2.23,8.36-1.62,12.03,.84,12.5,1.63l-6.18,.45c6.3,4.63,24.79-.54,37.22-.18l-5.2,3.29,12.76-2.66c2.7,.89,4.54,2.76-1.6,3.21,8.89,1.71,7.89-1.12,15.53,.77,.84,.29,.46,.45-.32,.58l8.71-.92c-1.71,.69,1.43,2.36-3.91,1.84,15.61,2.04,25.21-2.3,31.07,.27l-1.31,.19c21.68-.96,2.11-2.43,18.39-5.17l10.89,6.11,2.15-2.43c2.24,.11,6.66,.32,5.83,1.29,8.33-1.61-1.41-1.07,3.43-2.61,10.74,2.31,29.68-.81,32.08,3.1,3.88-1.83-10.28-1.51,1.22-2.71,3.24,4.21,13.29-.61,23.1,1.38-3.04,2.14-12.34,.92-2.52,2.92,5.96-3.6,19.14,.95,27.44,.31,.41-2.9,18.04-1.07,31.96-1.93-.89,.97,26.17,1.8,39.11,2.95l-.39,.48c2.53-2.92,15.88-2.26,25.6-2.79-.4,1.75-2.15,2.43-7.42,3.18l9.14,.06c2.16-.92,5.02-1.4,10.95-1.69l-2.32,2.18c12.17-.03,24.52-2.4,40.16-.81,.9-2.04-12.4-5.8,4.16-7.04,.61,1.11,1.2,3.01-3.13,3.43,1.42-.14,5.07-.88,7.92-.39l-6.63,1.81c7.12,.87,3.74-1.53,9.44-1.31-.12,1.58,4.21,1.16,3.38,2.41-1.46,.14-4.97-.69-7.15-.09,6.42,.33,14.19,1.33,16.74,2.55-.55-.9,.02-2.13,4.72-2.3,12.17-.02,4.15,1.93,11.24,2.8,2.95-1.07,10.71,.12,10.93-2.24,3.56,.04,4.21,1.15,5.58,1.8,6.3-.99,29.41-.07,22.33-2.64l-1.61-.18c.3-.05,.66-.05,1.03-.1h-.05s.05,0,.05,0c20.42-2.16,42.35,1.58,62.62,.85l-2.15-.78c.14,.11,.29,.21,.43,.3l.26,.15,.53,.28-.41,.68c1.12,.5,2.16,.78,3.17,.99,.5,.08,1,.15,1.5,.23,.5,.06,.97,.06,1.46,.09,.98,.08,1.91,.01,2.85-.04,.95-.02,1.84-.18,2.75-.3l1.36-.2,1.31-.3c.86-.21,1.74-.39,2.59-.63,.83-.26,1.65-.53,2.48-.79l1.22-.4,1.17-.47c3.14-1.19,5.98-2.65,8.53-4.06,1.24-.76,2.41-1.51,3.49-2.24,.54-.37,1.06-.73,1.55-1.08,.48-.38,.93-.76,1.36-1.13,1.58-.92,3.64-1.69,5.19-2.06,1.52-.41,2.56-.38,2.15,.45,1.93-1.42,3.4-2.57,4.71-3.59,1.3-1.04,2.39-2.01,3.65-2.97,1.25-.97,2.66-1.95,4.47-3.16,1.78-1.25,3.98-2.69,6.9-4.52-6.75,6.88,3.4-1.01-7.19,6.72,2.6-1.69,4.7-3.06,6.56-4.26,1.87-1.2,3.5-2.25,5.03-3.45,3.07-2.39,6.14-5.03,10.35-10.23-1.03,2.24,1.13,1.2,4.06-.95,2.97-2.11,6.5-5.51,8.46-7.7-2.44,1.59-4.86,3.2-7.31,4.76,2.33-2.31,4.55-4.43,6.77-6.42,2.21-2,4.4-3.89,6.53-5.87l-.42,4.12c2.54-1.9,4.89-3.88,7.1-5.91,2.21-2.04,4.3-4.1,6.18-6.26,3.8-4.29,7.25-8.58,10.48-12.79,3.22-4.22,6.35-8.24,9.74-11.85,3.34-3.65,6.91-6.91,11.12-9.53,3.06-6.14-10.1,9.18-7.73,3.33,3.97-4.14,8.74-7.74,12.7-10.75,3.96-3.01,7.25-5.31,8.44-6.66,2.87-2.73,4.74-4.93,6.08-6.91,1.32-1.99,2.14-3.74,2.97-5.51,1.65-3.54,3.3-7.18,9-13.13-1.04,.5-2.37,.72-2.53-.43-.15-1.14,.84-3.66,4.37-8.69,7.53-8.62,12.02-8.36,8.01-2.28-1.69,2.18-2.76,3.01-2.94,2.72-2.09,3.08-4.86,7.11-1.19,4.25l.21-1.76c4.36-3.78,14.31-16.06,13.17-12.21,4.7-7.36,1.13-3.85-3.32,.81,5.19-5.27,8.74-9.8,12.34-14.35,3.58-4.57,7.18-9.19,12.16-14.91-1.89,1.58-4.13,2.64-2.65,.76,14.55-16.82,4.59-8.82,13.46-20.96,6.31-5.93,.9,4.54,9.07-8.26,6.36-6.78,3.19-.04,1.58,3.36,3.44-6.06,7.57-11.01,11.48-15.22,3.87-4.23,7.49-7.73,9.97-10.8l-3.71,6.31c2.22-3.77,4.35-6.63,6.52-9.54l-4,2.21c2.81-3.23,4.96-6.14,5.55-5.6,1.62-4.27-4.54,.83-.72-7.19,4.2-3.97,9.36-14.6,12.56-14.7-11.18,13.98,3.21-.11-5.35,12.39,1.48-2.54,3.57-5.42,6.35-8.69,.6-.35,.07,.8-.5,1.83,11.87-12.56,2.31-8.05,12.75-22.39-.08,1.33,1.07,.89,2.42-.2,1.34-1.11,2.88-2.9,3.59-4.19-4.16,5.92-3.9,1.45-1.02-4.59,3.72-4.39,5.37-7.05,6.44-9.25,1.07-2.21,1.66-3.92,3.36-6.39l-4.2,5.42c.1-2.73,3.4-7.39,7.41-14.27,1.31,.03-3.35,6.45-1.37,4.34,1.43-4.35,4.6-8.23,8.11-12.45,1.76-2.11,3.6-4.3,5.32-6.67,1.66-2.41,3.2-5.01,4.41-7.88,3.74-4.44,2.58,.88,5.71-3.13,1.4-3.21,2.58-5.62,3.76-7.58,1.18-1.96,2.33-3.5,3.5-5.06,1.17-1.55,2.36-3.13,3.62-5.15,1.23-2.05,2.49-4.57,3.86-7.98-3.66,2.84-3.57,3.68-.43-6.25l-5,10.9c-1.68,3.63-3.48,7.2-5.22,10.81,1.69-4.94,3.43-9.82,4.95-14.8-.85,1.59-1.64,3.27-2.42,4.93-.8,1.65-1.56,3.3-2.29,4.87-1.45,3.13-2.76,5.94-3.96,7.75,2.21-7.15,2.25-6.25-.81-4.02,1.82-1.8,3.24-3.82,4.46-5.97,.61-1.08,1.16-2.19,1.69-3.32,.51-1.15,.98-2.32,1.46-3.5,1.88-4.75,3.82-9.66,7.24-14.3l4.06,2.46c2.39-3.62,4.3-7.21,6-10.86,.42-.91,.83-1.83,1.24-2.75,.37-.94,.74-1.87,1.12-2.81,.73-1.89,1.44-3.8,2.15-5.76,1.44-3.89,2.95-7.94,4.57-12.32,.84-2.18,1.75-4.42,2.76-6.74,1.02-2.32,2.15-4.72,3.33-7.25l-1.76,3.15-1.82,3.12c-.13-.87,.14-2.1,.65-3.56,.49-1.47,1.19-3.18,1.98-5,1.58-3.64,3.51-7.71,4.52-11.19,1.22,1.21,3.39-2.78,5.42-5.31-.61-.04,.89-3.84,2.27-8.01,1.34-4.19,2.46-8.76,1.33-10.25,1.76-2.89,3.62-5.75,5.3-8.68,3.29-8.41,3.92-13.62,4.28-18.8,.39-5.17,.81-10.21,3.43-18.42,.18,5.48,3.49-1.75,1.37,9.73,1.68-5.54,3.39-10.46,2.37-10.85,1.98-2.96,2.24-16,5.07-20.73-.07-2.53-1.49-3.72,.2-9.95,.48-.61,.75,.21,.75,.21-.75-.22,1.41-10.07-1.65-5,2.25-4.01,3.96-9.07,5.51-14.58,1.49-5.53,2.64-11.55,3.78-17.5,1.01-5.97,2.09-11.85,3.16-17.18,1.07-5.33,2.4-10.06,4.01-13.72,1.45-12.52,2.92-27.61,4.06-38.96,.39,.78,.78,.12,.37,2.25,.84-3.87,.99-6.44,.85-8.4-.14-1.95-.57-3.28-.99-4.67-.84-2.79-1.6-5.81-.07-14.65,3.3-8.9,.59,9.58,2.02,3.98,1.35-.51,2.09-2.12,2.51-4.43,.43-2.31,.52-5.32,.5-8.64,0-3.32-.04-6.93,.13-10.46,.14-3.53,.52-6.97,1.43-9.96l.15,2.94c2.27-9.16-.99-22.6-.46-37.63,0,0,.45,.74,.78,.1-.65-2.58-1.15-5.74-1.62-9.24-.49-3.5-.89-7.35-1.24-11.32-.39-3.97-.74-8.08-1.04-12.08-.34-4.01-.67-7.92-.97-11.52,2.18,4.42,1.29,6.53,3.27,3.71-.25-3.24-1.07-2.73-1.94-3.03-.88-.3-1.79-1.41-2.39-7.84,.96-4.24,1.38-13.61,3.5-14.99,.27,4.07,.58,8.13,.79,12.21,1.3-3.2,1.03-7.16,.48-11.12-.53-3.96-1.44-7.91-1.42-11.15l1.3,.73c-.42-4.68-.98-8.18-1.58-11.12-.6-2.94-1.2-5.32-1.84-7.73-.63-2.42-1.25-4.87-1.82-7.98-.58-3.1-1.14-6.85-1.62-11.86l-.72,2.17c-4.34-10.54,.72-9.36-2.98-19.94l2.69-3.71c-.87-3.55-2.5-9.74-4.3-16.62-1.82-6.87-3.79-14.43-5.24-20.77,3.63,6.82,7.25,21.68,9.93,30.85-.5-3.57-1.43-9.63-2.6-15.21-1.13-5.59-2.5-10.69-3.57-12.41,.78,2.81,2.18,6.29,2.15,9.2-3.88-8.33-7.05-19.51-9.85-33.53,3.24,.64,1.8-8.61-.45-19.38-1.13-5.38-2.45-11.14-3.4-16.25-.96-5.11-1.55-9.59-1.11-12.45-1.66-4.78-3.31-9.56-4.96-14.34l-.31-.89c0-.1-.09-.09-.18-.09h-.24s-.48,0-.48,0h-1.93s-3.83-.04-3.83-.04c-2.56,0-5.12-.02-7.68-.03-1.74-.02-3.49-.04-5.24-.06-1.59-.04-3.19-.08-4.79-.12-3.2-.1-6.43-.23-9.68-.38-13.03-.59-26.57-1.43-41.27-1.37,10.38,4.85-8.58,.06-6.82,4.97-6.85,.26-9.46,.15-10.07-.17l-20.72-3.1c-4.9-1.47,6.52-1.02,5.9-2.13-14.98-.5-6.27-2.13-16.18-3.51,2.02,1.77-5.23,2.46-13.77,1.72l12.01,2.36c-20.97,2.42-18.07-4.26-39.2-1.87l6.69-1.48c-10.84,.81-39.96-.38-50.62,3.46-1.91-.58-4.43-1.94,.34-2.25-1.76-.06-3.54-.09-5.34-.1-2.33,0-4.68,0-7.06,.01-6.59,.03-13.2,.13-19.62,.26-6.22,.16-12.47,.32-18.67,.48-2.94,.09-5.88,.18-8.8,.27l-1.07,.03-.53,.02c-.06,.03-.1,.06-.16,.08-.09,.06-.2,.12-.35,.17-.14,.06-.24,.12-.43,.18-.61,.24-1.51,.49-2.52,.75,6.42,4.71,12.65,9.38,18.03,13.5,1.32,1.02,2.62,2.02,3.92,3.03,1.17,.94,2.33,1.88,3.48,2.8,.57,.46,1.13,.92,1.69,1.38,.46,.44,.92,.88,1.37,1.31,.9,.87,1.79,1.73,2.67,2.58,1.63,1.7,3.12,3.39,4.58,5.03,.65,.81,1.29,1.61,1.93,2.41,.32,.4,.63,.8,.94,1.19l.47,.59c.14,.18,.35,.44,.4,.53,.71,1.01,1.38,2,2.01,2.98,.62,.99,1.19,1.98,1.72,2.94l-2.06-.8c2.97,3.45,6.49,5.24,8.56,10.79-.58,0-1.98-.94-.93,.9,.4,.47,1.11,1.28,2.01,2.32,.86,1.07,1.88,2.38,2.93,3.81,1.03,1.44,2.05,3.03,2.99,4.6,.91,1.59,1.67,3.19,2.22,4.63-1.2-1.36-2.37-2.72-3.58-4.04,4.87,11.02,9.13,19.2,13.23,27.15,4.04,7.94,7.88,15.64,10.75,25.62-.86,.2-1.28,1.53-1.42,3.57-.18,2.05-.09,4.79,.15,7.8,.15,3.03,.49,6.32,.77,9.46,.23,3.15,.57,6.13,.74,8.52l-.54-.26c1.7,14.07,3.23,26.05,4.53,37.92,1.29,11.86,2.2,23.61,2.03,37.03-1.15,4.09-2.29,9.61-3.2,16-.54,3.19-1.06,6.61-1.56,10.17-.49,3.56-1.14,7.26-1.69,11.05-2.36,15.13-5.52,31.46-9.49,44.25,1.56-3.84,2.53,1.24,1.78,5.98-2.04,5.97-1.84,17.52-4.71,15.74l.62-2.16c-4.2,3.81-6.75,16.46-9.75,26.1l3.56,2.81c-6.65,11.84-11.66,28.38-16.4,43.54-2.46,7.55-4.7,14.78-7.2,20.77-2.44,6.01-4.85,10.87-7.54,13.68-1.48,6.3-4.43,13.67-6.04,19.89l-1.95-1.21c-3.79,8.02-6.62,14.03-9.68,20.52-1.52,3.25-3.05,6.63-4.75,10.46-1.76,3.8-3.68,8.06-5.91,13.07l.45-4.73c-5.37,11.11-.9,16.91-5.84,27.27l-4.55,1.57c-2.42,4.83-5.08,9.57-7.75,14.29l-4.04,7.07-4.11,7.03c-2.72,4.69-5.29,9.46-7.76,14.25-2.47,4.8-4.73,9.69-6.65,14.74-.26-.55-.81-1.58,.76-4.71-1.26,2.21-3.18,5.42-5.32,8.93-2.17,3.5-4.52,7.33-6.52,10.85-2,3.52-3.66,6.75-4.46,9.03-.81,2.24-.77,3.54,.71,3.36-1.38-.66-4.23,3.99-7.46,10.09-1.69,3-3.47,6.38-5.15,9.66-.82,1.66-1.72,3.22-2.54,4.72-.82,1.5-1.6,2.92-2.3,4.19l-.78-2.75c-1.65,4.78-2.33,7.4-3.67,10.16-.65,1.39-1.43,2.84-2.52,4.66-.55,.91-1.17,1.91-1.9,3.04-.37,.56-.76,1.16-1.17,1.79-.44,.62-.91,1.27-1.4,1.97-2.27,2.34-3.18,1.09-.03-1.89-3.86,3.83-4.77,5.79-5.87,7.99-.56,1.09-1.13,2.27-2.2,3.71-1.08,1.44-2.6,3.18-4.97,5.47l2.11-4.63c-7.38,8.31-6.19,8.16-9.11,13.8-3.98,5.89-14.95,15.05-17.5,14.81-.16,1.94-3.38,7.38-8.47,11.6-1.16,.07,.22-1.95,.91-2.95-3.55,3.03-6.59,5.73-9.15,8.36-2.58,2.62-4.76,5.1-6.9,7.36-4.25,4.56-8,8.62-13.62,11.93-.68-.39-1.56-.12-2.51,.4,2.81-2.41,5.53-4.65,7.92-6.75,2.39-2.1,4.52-3.98,6.28-5.53,1.77-1.54,3.17-2.75,4.07-3.53,.89-.79,1.31-1.13,1.13-.91-1.35-1.44-10.48,6.18-5.34-2.22-5.99,7.51-16.07,20.94-25.81,27.49-.56,.2-1.11,.4-1.64,.43l.78-.94c-2.21,1.54-3.92,3.24-5.49,4.91-3.13,2.04-5.14,3.3-7.96,5.48-2.08-.43-11.41,7.6-16.21,11.13,1.74,1.51-4.79,5.83,2.23,3.01-.86,.44,.75-.89,3.85-3.37,.68-.6,1.5-1.26,1.89-1.72-.05,.12-.12,.26-.21,.4,3.09-2.42,7.15-5.53,11.66-9.18-1.5,1.9-3.06,3.83-5.02,5.63-1.97,1.78-4.32,3.47-7.33,4.97-1.57,3.01-3.38,6.25-4.53,7.92-4.26,1.14-9.78,3.76-14.68,5.91-4.9,2.15-9.09,3.99-10.53,3.82-3.55,2.86-7.56,5.79-11.63,8.81-4.07,3.01-8.31,5.96-12.28,8.93-8,5.85-15.15,11.51-18.97,16.3-4.15,3.19-5.73,2.11-7.73,2.56,2.34-1.94,5.41-3.75,6.47-5.12-8.22,6.48-26.18,16.2-26.87,19.98-12.04,5.41,5.05-6.01-10.36,3.36l1.67-1.98c-16.55,6.7-28.29,15.13-40.69,23.59-12.4,8.42-25.52,16.77-44.57,22.58,2.62-.84,3.92-1.28,4.64-1.08-20.78,8.57-41.53,18.75-62.52,28.33-20.97,9.58-42.2,18.51-63.6,24.61-12.05,3.75-12.64,6-19.33,10.06l-3.4-1.3-11.35,7.2c-8.4,4.18-16.51,5.53-25.12,7.24-8.62,1.71-17.72,3.79-28.28,9.38l3.4,.56c-8.12,2.45-25.2,9.36-24.44,7.12-.73,.55-2.13,2.47-5.54,2.67l-.63-1.13c-6.39,2.79-12.8,5.57-19.23,8.28-7.86,1.92-7.62,.52-8.24-.51-.62-1.04-2.1-1.7-13.39,1.48-4.12,1.45-9.84,4.04-14.12,6.22-4.29,2.19-7.09,3.95-5.42,3.96,3.4-.83,8.89-1.61,9.49-.46l-7.56,2.76c-.22,1.99-1.6,4.3-.44,5.8,1.18,1.49,4.93,2.19,14.84,.74l12.64-6.03,4.78,.46-11.12,3.39c6.81-.21,10.41-2.85,14.58-5.18,1.34,.6,3.39,.68,6.12,.23l11.89-7.4c2,.9-4.93,4.58,3.98,2.62,5.55-3.49-6.78-1.28,2.9-5.48,6.79-.39,5.39,1.5,12.31-2.25,1.33,.57-.03,1.67-2.83,3.01,6.21-3.2,17.19-6.16,19.93-9.17,7.19-.2,21.83-8.04,22.34-4.51,1.77-1.51,10.54-6.63,16.44-8.92-4.73,3.92,.88,2.02,7.47-.29,6.61-2.28,14.2-4.98,13.56-2.32,6.72-6.51,28.37-12.49,41.68-20.1-.67,.6-2,1.79-3.31,2.09,8.04-2.87,10.77-2.73,16.13-4.13-.16-3.32,11.87-9.01,17.71-13.58,10.82-1.25-4.43,5.85-.29,7.26-.73-1.07,3.22-3.41,6.84-5.56,3.61-2.17,6.88-4.15,4.83-4.42,8.09-1.42,6.7-1.87,11.51-1.14-.28-4.17,6.58-3.57,11.67-8.49,11.35-2.98,4.24,2.17,15.34-4.19,6.01-1.43-3.73,4.55-3.73,4.55Zm256.25-161.11s.02,.03,.03,.03c-1.99,1.7-3.68,3.15-4.76,4.08,.99-.86,2.35-2.04,4.73-4.11Zm19.36-16.62c-2.36,2.03-5.29,4.55-8.4,7.22-1.18,0-.97-1.24,1-2.88-.72,1.3,4.15-2.25,7.4-4.34Zm-51.11,21.93c2.97-2.63,4.25-3.13,4.97-3.1-1.44,1.2-3.12,2.6-5.33,4.44-.04,.14-.17,.36-.21,.5,.04-.57,.14-1.15,.56-1.84Z"/><path class="cls-4" d="M1089.72,741.75c-.43,.39-.62,.65-1.21,1.12,.77-.33,1.48-.66,2.19-1.03,.24-.48,.49-.97,.7-1.41-.57,.45-1.16,.91-1.68,1.32Z"/><polygon class="cls-4" points="1336.12 420.55 1335.58 420.37 1335.2 422.63 1336.12 420.55"/><path class="cls-4" d="M963.9,973.46c-.26-.2-.79-.41-1.82-.59,.08,.15,.87,.36,1.82,.59Z"/><path class="cls-4" d="M903.7,972.48l-8.51-.87c3.68,.48,6.36,.72,8.51,.87Z"/><path class="cls-4" d="M857.43,971.01c-.59,.39-.76,.69-.91,.96,.04,0,.06,0,.09,.01l.82-.97Z"/><path class="cls-4" d="M1449.86,674.42c.33-.52,.64-1.04,.89-1.53,1.92-3.69,.51-1.25-.89,1.53Z"/><path class="cls-4" d="M1321.83,851.2c1.19-2.03,2.36-4.04,3.73-6.04-2.64,2.86-4.63,5.13-3.73,6.04Z"/><path class="cls-4" d="M1545.76,454.24s.02,0,.03,.03c.13-.5,.25-.94,.39-1.44l-.42,1.4Z"/><path class="cls-4" d="M1332.1,837.4c-2.8,2.73-4.83,5.26-6.54,7.76,2.18-2.33,4.78-5.05,6.54-7.76Z"/><path class="cls-4" d="M656.82,968.43l-2.23-.11c.04,.15-.1,.27-.27,.36l2.5-.25Z"/><path class="cls-4" d="M654.33,968.68l-2.48,.25c1.14,0,2.12,0,2.48-.25Z"/><path class="cls-4" d="M646.63,969.45l5.22-.53c-1.8-.02-4.03-.11-5.22,.53Z"/><path class="cls-4" d="M718.09,969.94l.71-.81c-.38,.17-.63,.43-.71,.81Z"/><path class="cls-4" d="M736.71,969.85c-4.44-.22-11.13-1.83-17.33-1.36l-.58,.64c2.92-1.19,13.68,2.06,17.91,.72Z"/><path class="cls-4" d="M1211.49,970.26l.38,2.19c5.48-3.89-.39-.69-.38-2.19Z"/><path class="cls-4" d="M1256.16,919.34l-5.35,3.42c-.27,1.15-.57,2.26-.87,3.39,2.13-2.21,4.15-4.55,6.22-6.81Z"/><path class="cls-4" d="M1294.23,901.25l-1.74,2.27c2.32-2.81,4.63-5.61,6.86-8.48-1.68,2.09-3.37,4.17-5.12,6.2Z"/><path class="cls-4" d="M1579.53,392.14l-2.81,1.51c-.13,2.21,.4,3.66,1.09,3.65,.68,0,1.5-1.48,1.72-5.16Z"/><path class="cls-4" d="M1584.15,137.49c.96-2.9,.93-10.14-.85-14.38,.54,5.72,.22,11.51,.85,14.38Z"/><path class="cls-4" d="M1339.9,350.48c.26-1.68,.5-3.36,.7-5.05-.66,3.1-1.48,6.16-2.22,9.25l1.51-4.19Z"/></g></g><g class="cls-5"><path class="cls-1" d="M3087.79-2.09s-108.65,521.88-31.45,788.09c77.2,266.22,246.92,187.09,332.52,188.99-58.25-5.29-398.79,2.1-398.79,2.1,0,0-88.35-158.94-104.07-421.16-15.71-262.22,79.67-557.53,69.35-558.02h132.44Z"/><g><path class="cls-2" d="M3087.79,3.24c1.45-.69,.63-2.25-3.38-1.94l-2.85,2.65,6.22-.71Z"/><path class="cls-2" d="M3060.82-1.67c-4.71,1.28-10.15,3.54-7.1,5.97,4.67-2.54,5.8-1.48,10.83-4.51,4.01-.31,7,.85,6.33,1.82,1.42-.68,6.23,.58,8.39-1.08-5.22-2.05-11.83-2.13-18.74-.44-1.48-.58-.05-1.28,.29-1.76Z"/><path class="cls-2" d="M2897.92,278.16l.68-2.46c-.27,.66-.49,1.5-.68,2.46Z"/><path class="cls-2" d="M2879.38,520.79c-.11-1.86-.39-2.63-.63-2.72,.21,1.72,.41,3.14,.63,2.72Z"/><path class="cls-2" d="M2878.36,562.6c.02-.9,0-1.65,0-2.46-.18,.95-.25,1.9,0,2.46Z"/><path class="cls-2" d="M2897.92,278.16l-1.76,6.31c.79,.57,1.1-3.21,1.76-6.31Z"/><path class="cls-2" d="M3006.77,4.72c1.36-.13,2.49-.38,3.52-.7-1.12,.11-2.19,.21-3.31,.28-.06,.14-.11,.27-.21,.42Z"/><path class="cls-2" d="M2913.99,172.08l.38-1.94c-.18-.63-.44-1.23-.74-1.82l.36,3.76Z"/><path class="cls-2" d="M2930.5,91.44c-.5,1.8,1.56,2.91,2.36,3.82-.68-1.23-.81-2.66-.62-4.29-.41-.12-.96,0-1.74,.47Z"/><path class="cls-2" d="M2902.89,229.98c-.35,.08-.69,.32-.92,.61,.28,.05,.59-.2,.92-.61Z"/><path class="cls-2" d="M3060.27,89.86c.15,.09,.26,.02,.4,.06-.14-.51-.28-.68-.4-.06Z"/><path class="cls-2" d="M2882.65,638.96c0-.15,0-.2,0-.34-.5-1.97-.32-.84,0,.34Z"/><path class="cls-2" d="M3004.64,4.43c-1.11,.03-2.24,.04-3.37,.02,1.53,.07,2.57,.07,3.37-.02Z"/><path class="cls-2" d="M2917.84,811.58c.29-.45,.39-1.21,.47-1.99-.21,.12-.37,.58-.47,1.99Z"/><path class="cls-2" d="M2893.45,682.77l.21,3.25c0-1.3-.09-2.34-.21-3.25Z"/><path class="cls-2" d="M2940.84,875.78c.4,1.73,.3,2.4,1.36,4.58,.03-.25,.04-.48,.02-.78-.57-.72-1.08-1.78-1.39-3.79Z"/><path class="cls-2" d="M2966.26,941.94c.01-.41-.07-.92-.1-1.38-.31-.63-.67-1.37-1-2.02l1.09,3.4Z"/><path class="cls-2" d="M3032.5,302.58c.79-1.47,1.58-2.36,2.35-3.03-1.7,.92-1.19-9.46-2.35,3.03Z"/><path class="cls-2" d="M3006.73,3.46c-.41,.57-1.01,.85-2.09,.97,.81-.03,1.58-.07,2.34-.12,.2-.33,.25-.65-.25-.85Z"/><path class="cls-2" d="M2958.53,872.72c1.08,3.53,2.24,7.02,3.36,10.54-.82-2.99-2.08-6.8-3.36-10.54Z"/><path class="cls-2" d="M3053.49,807.71l-1.06-2.4c.26,.97,.61,1.83,1.06,2.4Z"/><path class="cls-2" d="M2973.79,913.81c0,2.12,.33,4.24,.87,6.35,.34,.36,.67,.78,1.03,.97-.67-2.43-1.27-4.88-1.9-7.32Z"/><path class="cls-2" d="M3034.87,299.52s-.03,.02-.03,.02c0,0,.02,0,.03-.02Z"/><path class="cls-2" d="M3038.08,225.5c-1.42,10.6,2.24,5.35,3.64,7.81-.73,12.76-2.88,5.59-4.92,9.72-.18,8.01,1.79,14.39,.99,20.28-.53,.38-.84,1.51-1.29,.1,1.37,8.63-2.7,24.86-.76,34.93-.34,.7-.62,1.04-.86,1.2,1.64-1.43,3.16-1.51,4.19-1.08-.44,4.76,.93,9.02-1.16,10.61,.34-2.91-.39-3.23-.86-4.66l.32,5.07c-3.22,4.21-.27-6.91-2.3-7.12-.11,9.83,1.06,21.39-.4,28.77-2.87,1.31,.75-17.53-2.61-7.81l2.17-11.45c-5.14,8.4,.99-6.99-4.37,.67-1.15,7.57-1.22,11.86-1.27,16.14-.05,4.28-.13,8.56-1.18,16.12,1.2,3.55,2.32-.93,3.53,2.62,.38,10.9-1.61,15-3.51,18.4-1.89,3.4-3.58,6.12-2.38,14.2,1.49,4.25,4.79,6.09,2.19,17.26l-2.8-4.07c-1.34,14.75,3.83,8.72,.78,24.04-1.03-2.82-.28-11.67-.79-9.46-3.04,9.87,1.27,7.2,.83,14.89l-2.81,1.44c-.51,15.77,.67,33.2,.56,50.65-.78-.99-1.53-4.01-2.49,.04,.59,22.05-1.52,46.99-3.05,68.3l2.38,8.12c0,1.89-1.02,3.52-1.5,1.47-.78,8.31,1.5,.41,2.47,4.39,.22,4.71-1.27,6.25-2.01,3.27,.53,3.65,1.12,8.08,1.71,12.9,.57,4.82,1.07,10.04,1.53,15.29,.84,10.49,1.31,21.08,.46,28.85l-.87-2.97c-.22,12.07,5.55,13.24,4.2,24.48l-.57-2.1c.37,13.04,1.99,26.68,3.31,39.57,1.46,12.88,2.67,25.01,2.48,35.15,1.99,1.62,2.51,8.08,3.44,14.24,.44,3.08,.9,6.09,1.57,8.38,.69,2.28,1.61,3.84,2.84,4.03,.31,7.55,.01,10.34,.1,13.84,.03,1.75,.13,3.69,.41,6.51,.15,1.41,.3,3.04,.59,4.97,.29,1.93,.65,4.16,1.1,6.79,.59,2.78,1.76,4.66,3.18,6.65,1.4,1.99,2.93,4.1,4.09,7.4l-2.33,.83c1.64,2.84,3.4,5.61,5.13,8.38l-1.37,5.69c.81,2.04,1.72,4.05,2.59,6.06-.68-2.53-.66-5.61,.15-5.45,1.03,2.35,1.96,5.03,2.7,7.75,.74,2.72,1.33,5.48,1.84,7.94,.96,4.95,1.25,8.84,.69,9.18l5.28,11.02c1.86,3.63,3.67,7.27,5.57,10.87-1.16-.09-2.99-3.75-4.8-6.51,3.61,5.56,3.24,6.34,2.81,7.02-.44,.68-.95,1.26,2.5,6.28-.13-1.7,1.69,.2,2.25,.24,.24,1.52,.8,3.42,1.6,5.55,.79,2.14,1.76,4.52,2.87,6.98,1.17,2.44,2.45,4.96,3.77,7.42,1.3,2.46,2.77,4.79,4.09,6.94l-2.42-.89c4.11,8.18,9.27,16.41,15.03,24.57,5.77,8.16,12.15,16.26,18.96,24.14-4.19-6.24-.78-6.76,3.26-2.36l-.35,3.52c3.81,1.82-3.47-5.33,3.34-.71,1.22,1.47,1.91,2.57,2.21,3.35,.31,.77,.22,1.22-.15,1.42-.76,.41-2.57-.28-4.38-1.65,2.29,2.17,4.74,4.19,7.14,6.23-.16,.95-2-.35-3.12-.08,.97,.42,2.05,1.48,3.23,2.86,1.22,1.34,2.55,3.01,3.95,4.69,1.37,1.71,2.97,3.29,4.5,4.64,.78,.67,1.55,1.26,2.33,1.73,.8,.45,1.59,.78,2.36,.96l-.07,.94c2.04,1.68,3.96,3.23,5.86,4.58,1.88,1.37,3.62,2.69,5.37,3.8,1.74,1.14,3.37,2.24,5,3.23,1.64,.97,3.22,1.9,4.77,2.81,6.31,3.51,12.32,6.52,20.19,10.01,.62-.96,2.4-.66,4.7-.09,2.29,.59,5.17,1.28,7.82,1.35,5.69,2.44,11.76,5.01,18.31,7.21,6.55,2.16,13.58,3.94,21,4.91,2.64,.1,4.16,.04,5.04-.13,.87-.15,1.1-.37,1.15-.62,.1-.5-.5-1.1,1.89-1.5,.26,1.09,4.08,1.91,6.88,2.54,2.79,.61,4.56,1.01,.67,1.51,8.92,.48,14.59,.44,20.83,.2,6.23-.28,13.04-.83,24.02-2.37-2.45-.67-5.15-.89-3.8-1.66,3.96-.57,9.13,.25,8.63,1.26l-1.04,.29c12.22-2.43,26.46-2.58,40-2.89,13.55-.32,26.16-.61,35.34-3.37l-1.04,.29c5.88-1.11,11.73-2.05,17.55-2.61l.86-15.25-1.75,.08c-9.48-.93,5.84-1.19-1.1-2.88-2.84,.25-5.51,.41-8.06,.48-2.51,.04-4.91,.08-7.21,.12-4.56,.02-8.76-.21-12.85-.46-8.16-.48-15.79-.93-24.79,.07-6.92-3.11-19.24-3.03-32.16-2.72-12.91,.41-26.42,1.05-35.79-.82l1.09,1.42c-4.83,1.42-5.85-.78-9.42-1.09,.51,1.1,5.25,1.25,2.25,2.04-40.94,1.93-84.53-1.36-126.52-2.03-15.36-.14-8.6,7.5-28,4.4l5.45-2.73c-30.92,3.66-63.33,.95-93.59,4.24,1.8-.65,1.83-1.44,4.79-1.49-6.44-1.79-23.68,.38-23.76,1.95-.07,0-.15,0-.22,0-.04,0-.05,0-.07,0-.04,0-.08-.02-.11-.02-.07-.02-.13-.04-.18-.06-.1-.05-.17-.11-.21-.19-.08-.15-.07-.35-.04-.56,.07-.43,.15-.94,.04-1.34-.11-.22-.23-.26-.45-.19-.14-.06-.34-.09-.6-.16-.13-.03-.28-.09-.43-.16l-.23-.11-.11-.07c-.07-.09-.19-.27-.27-.4-1.51-2.26-2.64-4.29-2.53-5.84,.03-.65,1.32,1.32,1.96,2.28-1.32-1.63-3.34-5.95-5.02-9.33-1.69-3.38-3.06-5.82-3.26-3.56-3.68-10.62-9.56-19.26-11.75-28.07-2.25-2.24-3.75-6.84-5.19-10.91-1.39-4.09-2.72-7.67-4.69-7.92,1.82-.26,.77-5.14-1.21-10.72-2.01-5.57-4.82-11.91-6.84-14.99,1.8,1.9-.93-6.23,1.41-4.08-1.33-3.83-2.75-7.46-4-9.89-1.22-2.44-2.29-3.68-2.95-2.71-.13-3.9-.97-7.57-2.14-11.04-1.12-3.48-2.54-6.77-3.88-9.87-.67-1.55-1.31-3.06-1.88-4.52-.55-1.47-1.02-2.89-1.36-4.27-.69-2.76-.87-5.35-.13-7.75-8.57-22.66-15.33-44.1-20.93-65.19,1.85-.01,3.27,5.83,4.67,11.47,1.49,5.61,2.94,11,4.67,10.1-6.35-19.65-11.9-30.68-15.14-50.96-.52-5.31,2.1,2.66,3.07,4.28-2.69-9.98-4.6-19.78-6.2-29.34-.81-4.78-1.72-9.47-2.57-14.1-.87-4.63-1.85-9.18-3.06-13.65,.34,0,1.02,1.9,1.58,3.71-.69-3.56-.8-8.39-2.36-7.74l1,3.42c-.71,3.04-2.54-.32-4.28-4.52-1.71-4.2-3.4-9.24-4.07-9.48,5.52,5.44-1.39-18.19,5.87-9.3-.66-2.31-1.76-5.19-2.79-4.5-.12-3.56,.38-4.75,2.06-1.35-2.47-12.76-3.67-7.97-5.03-19.66,.79-.05,1.35,2.28,2.44,3.37-2.24-5.73-4.36-11.53-4.76-21.49,.54,.55,1.04-.66,1.34,2.29-1.92-16.95-6.83-28.65-6.57-47.5,3.84,5.3,.67-6.44,3.63-7.6l-1.42-9.98-1.25,4.1c-.4-8.8-2.86-16.52-2.09-24.14l1.43,6.52c-.37-5.5-.7-11-.98-16.51l-.93,9.39c-1.75-8.9-3.78,1.05-3.17-10.75,.34,2.39-.09-8.87,1.67-13.48,0,0,0,.03,0,.03-.96-4.37-1.97-8.89-1.15-15.43,.97-1.69,3.29,1.4,3.93,.3-2.48-4.34-.35-20.68-2.8-26.23,.57,1.84,2.13,1.99,2.47,1.4l-1.91-3.69c.79-4.07,1.13-4.66,2.35-3.95,.87-12.29-3.96,3.76-1.71-10.79,.11,1.15,.44,.62,.64,3.02,1.48-14.63,.18-28.43,2.16-41.83,3.28-3.75-.1,11.81,2.75,7.44,.78-19.4-.41-40.45,2.31-59.12l-.7,3.46c-3.95-3.05,3.57-13.73,2.72-23.41,.04,2.35,1.98,3.31,1.58,2.63,2.19-12.72,2.15-26.29,3.58-45.86l.74,2.55c2.02-7.39,3.44-19.74,5.2-27.78-.71-2.58,.21-7.19-1.8-4.62,5.04-12.03,6.22-24.06,7.29-35.79,1.08-11.72,2.05-23.12,6.69-33.69-.49,2.64-.25,6.47,.15,4.37l2.62-19c-2.11,1.13-1.58,2.25-3.76,5.93-.61-2.59-.42-8.07,.51-12.73-.47,8.7,2.92,.5,4.66-2.95-.68,.5-1.04-.87-1.67-.68,5.2-9.17-3.33-2.38,1.58-15.35l.8,.9c.54-5.11,.25-10,1.66-15.35,2.56-1.8-.15,5.54,1.51,6.24,1.46-7.61-.81-15.81,2.76-22.23-.11,3.34-1.1,7.98-1.2,11.32,4.05-6.95,3.61-7.94,5.2-13.41l-.17,.53,3.91-12.57-1.38,3.12c-3.36-10.68,3.27-19.5,2.6-33.06,.57,13.16,1.49,2.49,3.63,3.97,1.39-3.11,3.25-7.89,3.6-6.33-.54-6.46,3.79-9.71,2.94-18.86,.85-.21,1.54-6.44,3.14-4.64,1.18-7.99-1.74,1.56-2.55,.68,.07-6.34,2.47-13.26,4.84-20.94,1.18-3.84,2.35-7.87,3.17-12.15,.2-1.07,.39-2.16,.54-3.26l.11-.83c.03-.26,.08-.63,.07-.7,.01-.29,.02-.58,.02-.88-.02-1.21-.11-2.57-.52-4.29-.04-.36-.13-.72-.21-.94-.09-.25-.18-.56-.43-.7-.23-.07,0-.07,.06-.09l.27-.06c.37-.09,.73-.18,1.07-.26,.69-.18,1.35-.37,1.97-.56,1.47-.42,2.76-.78,3.98-1.13,.31-.1,.76-.19,1.19-.29,.43-.1,.86-.19,1.29-.29,.85-.19,1.71-.38,2.58-.57,3.48-.75,7.25-1.44,12.69-1.94,4.81,1.25-3.94,2.84-3.94,2.84,7.77,1.15,13.61,.94,20.92,.04-1.48,.68,.05,1.26,2.28,2.13,5.87-.2,3.93-2.84,11.67-1.69-1.33,.87-3.03,2.26-5.87,3.13,6.92-.72,13.75-2.17,20.92-2.88,1.9,1.36-4.32,2.06-6.85,2.95,8.05-.61,20.86-1.23,23.35-3.38l-5.16-.77c2.93-.1,1.51,1.85-.66,2.24-6.9,1.69-9.95-.75-10.34-1.53l5.1-.5c-5.24-4.58-20.49,.73-30.76,.47l4.28-3.33-10.53,2.76c-2.24-.87-3.77-2.72,1.3-3.22-7.36-1.64-6.52,1.18-12.84-.65-.7-.29-.38-.45,.26-.58l-7.19,.99c1.41-.7-1.2-2.35,3.22-1.87-5.31-.79-9.77-.51-13.52-.08-.94,.12-1.83,.23-2.68,.34-1,.11-1.95,.21-2.86,.31-1.82,.17-3.38,.27-4.88,.17-.95,.34-1.83,.51-2.61,.7,.26-.22,.51-.45,.75-.68-.95,.75-1.79,1.36-2.51,1.84-.18,.12-.35,.23-.52,.34-.08,.05-.16,.1-.24,.15-.07,.03,0,.02,.04,.03,.04,0,.08,0,.11,.02,.25,.16,.29,.54,.35,.82,.12,.99,.09,1.77,.08,2.3-.01,.55-.02,.88-.02,1.07,0,.4,.03,.26,.07,.25,.02,0,.03,0,.04,.13,.02,.12-.07,.31,.2,.89,.36,1.05,.69,2.8,.89,5.35-2.47,2.55-5.02,5.19-7.58,7.69l2.04,2.21c-.45,1.79-1.4,5.32-2.21,4.45,.19,7.06,1.29-.92,1.99,3.31-4.05,8.21-4.35,24.16-8.59,25.25,1.1,3.52,3.28-7.98,2.43,1.57-4.68,1.71-1.74,10.86-5.41,18.36-1.55-2.91,1.27-10.17-2.41-2.66,2.47,5.59-4.28,15.27-5.09,22.12,2.76,.95-2.06,14.82-3.53,26.29-.82-.92-6.1,20.85-9.25,31.15l-.41-.41c2.46,2.62-.29,13.34-1.24,21.35-1.66-.65-2.07-2.2-1.99-6.64l-1.45,7.43c.58,1.93,.61,4.35,.01,9.23l-1.8-2.29c-1.79,9.93-1.26,20.41-4.99,32.91,1.89,1.07,7.43-9.12,6.36,4.58-1.18,.31-3.13,.47-2.95-3.13-.06,1.18,.17,4.28-.7,6.53l-.88-5.71c-1.84,5.67,.99,3.31,0,7.92-1.54-.36-1.71,3.25-2.83,2.36,.05-1.21,1.35-3.94,1.05-5.83-1.21,5.19-3.21,11.37-4.75,13.27,.96-.31,2.1,.36,1.65,4.23-1.54,9.96-2.45,3.09-4.21,8.76,.68,2.59-1.46,8.76,.85,9.3-.47,2.91-1.65,3.28-2.46,4.3,.19,5.31-3.37,24.14-.02,18.7l.36-1.3c.01,.25-.03,.55-.02,.86v-.04s0,.04,0,.04c-.19,17.22-6.3,34.96-7.32,51.94l-.78-.12c-.32,10.16-2.04,22.46-1.08,29.82-.31,2.97-2.14,6.88-2.95,5.52-.16,7.77,.62,8.7-1.66,19.73-.68-7.88-1.46,2.57-.3-8.04-1.58,9.96-3.04,12.15-1.73,23.09-1.74-3.83-3.12,7.38-2.83,12.2l1.94-6.94c-.1,5.39-.59,10.07-1.06,14.84l-2.49-2.75c-2.28,10.21-1.39,19.61-.67,28.34,.73,8.74,1.29,16.81-1.61,24.6,1.71,5.5,1.61-11.18,3.66-6.23-.65,9.45-4.6,19.29-4.64,22.28-.8,6.51,.17,9.57,1.2,12.68,1.03,3.12,2.12,6.29,1.7,13.1,.93-1.76,3.42-3.41,4.48,6.71-.16,9.47-3.7,11.76-4.62,5.77-.14-2.28,.14-3.39,.47-3.3-.4-3.06-.89-7.09-1.84-3.3l.97,1.22c-.91,4.74-.39,17.83-2.04,14.81,1.17,7.17,1.65,3.02,1.98-2.32-.97,12.25,.65,19.08,.55,31.66,.38-2.02,1.37-3.92,1.5-1.94,.1,18.43,2.36,7.96,3.63,20.34-.9,7.16-3.69-2.26-1.4,10.14-.31,7.72-2.37,1.84-3.41-1.14,1.41,5.63,1.58,10.98,1.43,15.76-.12,4.77-.49,8.96-.32,12.24l-1.4-5.93c.83,3.55,1.13,6.49,1.45,9.49l1.52-3.63c.04,3.56,.35,6.55-.44,6.57,1.62,3.49,2.85-3.12,5.3,3.88-.44,4.8,2.78,14.11,.47,16.04-.98-14.83-2.31,1.94-4.26-10.49,.6,2.37,.95,5.31,1.06,8.88-.21,.56-.58-.43-.84-1.38-.45,14.41,3.54,6.15,5.55,20.73-1.67-1.66-2.19,3.76-1.55,6.1-.81-5.89,1.95-3.14,3.79,2.08,.09,4.75,.74,7.25,1.37,9.18,.64,1.93,1.31,3.28,1.64,5.73l-.37-5.64c1.7,1.67,2.26,6.34,3.74,12.75-1,.74-1.69-5.76-1.8-3.37,1.8,3.4,1.81,7.57,1.88,12.1,.04,4.54,.05,9.46,1.77,14.32-.07,4.81-2.54,.94-2.4,5.13,1.99,5.44,2.11,8.57,2.19,11.78,.05,1.61,.07,3.24,.35,5.18,.29,1.94,.82,4.2,1.81,7.06,1.15-3.78,.57-4.27,4.14,3.61-1.8-6.34-3.62-12.67-5.27-19.05,1.71,3.97,3.41,7.93,5.21,11.85-1.25-5.81-3.63-12.07-4.01-15.62,2.68,5.62,2.09,5.09,3.1,2-1.32,8.55,4.84,15.44,4.87,25.02l-4.68,.72c.46,7.15,2.51,13.16,4.71,19.64,1.11,3.24,2.37,6.58,3.49,10.26,1.15,3.67,2.12,7.68,3.02,12.2-.23-1.97-.47-3.94-.66-5.93,2.37,1.94,3.09,10.91,5.31,16.48-1.67-.13-1.3,3.62-1.55,6.33,1.06-.61,3.47,13.02,6.99,13.75l.31,8.45c1.65,7.26,4.02,10.97,6.35,14.61,1.17,1.82,2.34,3.61,3.45,5.8,1.14,2.19,2.23,4.78,3.2,8.2-2.96-3.55-2.02,2.96-6.14-5.76,1.45,4.54,2.5,8.71,3.56,8.44-.13,2.98,6.22,11.85,6.19,16.48,1.31,1.67,3.1,1.74,4.76,6.81-.11,.66-.74,.24-.74,.24,.74-.24,3.79,7.52,3.88,2.53,.05,3.86,1.06,8.17,2.43,12.7,1.41,4.52,3.3,9.22,5.19,13.84,3.84,9.25,7.81,18.15,8.42,24.85,4.6,9.36,10.25,20.56,14.6,29-.69-.33-.72,.32-1.37-1.36,.36,1,.72,1.87,1.06,2.63,.17,.38,.35,.74,.52,1.07,.09,.18,.18,.35,.27,.51,.12,.22,.24,.43,.35,.63,.93,1.62,1.76,2.76,2.52,3.61,.78,.84,1.48,1.41,2.16,1.93,.33,.25,.67,.5,1.02,.77,.17,.13,.33,.27,.51,.41,.08,.07,.17,.15,.26,.22,.1,.06,.15,.2,.3,.17,1.37-.37,2.88-.66,4.77-.81,.95-.07,1.99-.11,3.2-.1,.59,0,1.26,.02,1.91,.05,.58,.03,1.2,.08,1.86,.14,3.79,1.2,1.84,1.58-.47,1.78-1.36,.09-2.83,.19-3.61,.24-.89,.08-1.04,.2,.55,.4,.15,.32,.39,.6,.72,.83,.16,.12,.35,.23,.55,.32,.21,.1,.44,.19,.58,.27,.65,.33,1.48,.52,2.44,.61,1.92,.18,4.38-.02,7.09-.3,5.41-.55,11.81-1.4,16.79,.02l-2.39,.35c7.6,1.62,18.43-2.33,30.81-2.18,0,0-.59,.47-.06,.79,8.41-2.81,24.41-3.97,36.3-4.9-3.67,2.09-5.39,1.17-3.09,3.19,5.33-.38-1.62-3.29,9.02-4.05,3.48,1.05,11.18,1.91,12.23,4.09l-10.04,.28c5.19,2.76,13-.3,18.3,.11l-.66,1.26c15.38-.64,15.55-3.8,32.1-3.8l-1.72-.92c9-3.24,7.6,1.65,16.59-.79l2.77,3.12c5.95-.84,20.86-3.3,31.55-4.02-6.04,2.41-18.54,3.76-26.27,5.24,5.91-.05,20.09-.47,23.15-2.06-2.38,.33-5.37,1.14-7.73,.68,7.22-2.57,16.76-3.91,28.54-3.95-2.03,6.14,30.73,1.25,39.3,5.99,10.41-1.2,20.74-1.01,31.5-.53,5.38,.24,10.86,.48,16.52,.73,5.65,.24,11.47,.4,17.53,.34-8.57-4.8,7.08-.1,5.62-5,5.65-.3,7.81-.18,8.31,.15l17.06,3.16c4.02,1.48-5.38,1-4.88,2.11,6.16,.27,7.45,.81,8.2,1.45,.76,.64,1,1.38,5.03,2.16-1.62-1.8,4.32-2.38,11.28-1.51l-9.76-2.54c7.92-.96,11.7-.1,15.1,.97,3.36,1.14,6.36,2.42,12.93,2.24l1.22-21.6c-1.04,.09-2.39,.22-3.87,.42l3.88-.97-1.28,22.71-1.89,.42c.52-.02,1.09-.04,1.85-.04l1.33-23.49c-5.39,.18-13.77,.49-21.67,1.53-7.92,1.02-15.38,2.68-19.29,4.99-1.65-.38-3.9-1.46,0-2.27-10.77,.96-22.4,3.53-33.43,5.53-11.03,2.03-21.53,3.45-29.72,2.62l1.52-1.28c-1.93,.27-3.6,.93-5.41,1.35-1.8,.44-3.75,.69-6.19,.12,.24-.5,1.54-1.22-.26-1.26-2.03,.51-10.29,2.18-15.41,1.28,1.47-.38,2.94-.81,4.41-1.23-10.04-.98-17.68-.79-25.06-.58-7.35,.18-14.45,.4-22.8-1.22,.22-.85-.56-1.78-1.94-2.8-1.37-1.02-3.38-2.01-5.57-3.14-4.44-2.1-9.68-4.54-13.14-6.21l.43-.37c-5.2-2.24-10.01-4.28-14.54-6.41-1.13-.53-2.28-1-3.38-1.54-1.11-.53-2.2-1.06-3.29-1.58-.55-.26-1.1-.51-1.64-.77l-1.6-.82c-1.07-.54-2.14-1.08-3.2-1.61-8.48-4.36-16.66-9.25-25.04-16.15-3.64-5.94-11.18-14.28-18.63-24.16-7.49-9.81-14.88-21.12-19.32-31.07,1.13,3.17-2.68,.94-4.88-2.31-.9-2.44-3.16-5.25-4.72-7.61-1.53-2.38-2.45-4.24-.82-4.6l.77,1.66c.56-2.46-.62-5.87-2.15-9.72-.79-1.91-1.73-3.91-2.68-5.89-.91-2.01-1.81-4.01-2.62-5.91l-4.42,.43c-1.48-11.18-7.05-24.15-11.81-36.31-1.15-3.05-2.28-6.03-3.35-8.87-1.04-2.85-1.9-5.61-2.64-8.17-1.51-5.12-2.14-9.54-1.61-12.75-2.48-4.74-3.95-11.08-6.24-15.89l2.27-.25c-1.34-7.14-2.35-12.49-3.43-18.27-.53-2.89-1.12-5.88-1.83-9.24-.68-3.37-1.43-7.13-2.32-11.54l2.23,3.33c-.4-2.5-1.15-4.47-2.06-6.16-.91-1.7-1.94-3.13-3.01-4.54-2.12-2.82-4.29-5.55-5.05-10.22l2.96-3.29c-2.55-17.65-1.56-35.83-6.03-53.12,.52,.25,1.54,.69,1.93,3.55-.36-4.18-.37-12.31-.88-18.97-.48-6.66-1.36-11.88-3.6-10.22,1.52-.2,1.26-4.79,.53-10.55-.73-5.76-2.12-12.67-2.92-17.48l2.28,1.42c-3.11-8.04-3.99-8.28-5.02-19.67,.23-2.71,1.73-2.41,1.24,1.19,.96-9.03-2.31-6.97-1.26-17.92l1.48,4.05c.06-9.27-.72-8.52-2.41-13.61-.91-5.83,.51-17.61,2.57-18.96-1.22-1.25-2.83-6.35-2.21-11.81,.77-.73,1.22,1.27,1.45,2.27,.85-7.74,.32-13.51-.17-18.68-.44-5.17-.8-9.74,.43-15.05,.75-.2,1.13-.89,1.38-1.76-.21,6.15-.39,11.71-.52,15.61-.15,3.9-.23,6.15-.31,5.68,2.05,.03,2.59-9.89,5.29-1.93-1.4-7.98-4.4-21.72-3.08-31.39,.21-.46,.43-.91,.75-1.26l.2,1.01c.27-2.23,.16-4.24-.11-6.13,.46-3.08,.8-5.03,.95-7.99,1.72-1.07,1.42-11.34,1.75-16.29-2.27,.3-1.59-6.17-3.74-.19,.2-.78,.22,.95,.16,4.25,.03,.75,.02,1.63,.13,2.12-.06-.1-.12-.22-.18-.35-.1,3.26-.24,7.5-.39,12.33-.98-3.96-1.78-8.11-.25-13.53-1.32-2.61-2.67-5.49-3.29-7.11,3.47-6.64,5.91-19.61,7.96-21.31-.37-15.2,1.56-35.65-1.9-45.49-.21-4.35,1.61-4.85,2.4-6.4,.22,2.52-.09,5.46,.42,6.85-.21-4.34,.22-10.71,.34-16.29,.13-5.57,0-10.35-1.39-11.51,2.29-10.71,2.16,6.33,3.01-8.59l.71,2.09c3.71-14.4,2.98-26.45,2.57-38.91-.44-12.45-.56-25.32,4.33-41.15-.63,2.2-.94,3.3-1.48,3.7,6.95-36.56,7.06-76.35,16.7-112.01,2.4-10.18,.71-11.57,.27-18.08l2.73-1.86-1.06-11.18c.42-15.58,10.1-25.41,9.59-45.28l-2.03,2.21c1.48-6.86,2.88-22.06,4.52-20.57-.17-.76-1.26-2.56,.06-5.11h1.28s.96-17.32,.96-17.32c3.36-12.95,4.52,2.96,8.4-16.1,.87-7.19,.39-20.89-.97-18.4-.65,2.83-2.25,7.15-3.53,7.12l.66-6.63c-1.71-.96-3.23-2.9-5.06-2.65-1.83,.26-3.99,2.7-6.84,10.48l.07,11.62-2.46,3.27,1.69-9.44c-2.7,5.02-1.87,8.7-1.57,12.68-1.11,.72-2.07,2.17-2.83,4.32l1.47,11.63c-1.68,1.07-1.95-5.45-4.08,1.79,.69,5.44,4.11-4.35,3.63,4.36-2.62,5.06-3.71,3.25-3.4,9.79-1.1,.72-1.47-.72-1.44-3.29,.13,5.8-2.13,14.91-.67,18.14-3.03,5.24-2.67,19.01-6.05,17.88,.53,1.9,1.09,10.33,.4,15.51-2.66-10.1-3.35,19.26-7.4,16.06,2.64,7.57-2.26,25.48-1.97,38.17-.2-.74-.6-2.18-.25-3.25-1.35,6.92-2.76,8.78-4.12,13.16,2.96,1.34,2.13,12.3,3.24,18.41-4.18,8.13-2.93-5.69-6.17-3.41,2.56-.08,.47,15.21,2.96,12.58-2.74,6.29-1.67,5.51-4.69,8.54,3.73,1.66-.15,6.18,1.53,11.92-3.13,9.22-3.95,1.97-4.1,12.53-1.82,4.81-2.02-4.63-2.02-4.63Zm-14.3,249.33s-.04,0-.04,0c.02-2.15,.03-3.98,.04-5.15,0,1.07,0,2.56,0,5.16Zm-.57,20.97c.15-2.55,.25-5.73,.31-9.1,.79-.71,1.57,.1,1.48,2.21-.49-1.16-1.06,3.77-1.8,6.88Zm17.09-43.64c.17,3.31-.31,4.39-.79,4.82,.03-1.56,.01-3.38-.02-5.77-.08-.1-.17-.3-.26-.4,.41,.33,.8,.71,1.06,1.35Z"/><path class="cls-2" d="M3037.64,446.11c-.03-.48-.11-.75-.1-1.37-.23,.66-.43,1.3-.6,1.94,.22,.41,.43,.83,.65,1.2,.02-.6,.04-1.22,.05-1.78Z"/><path class="cls-2" d="M2898.71,275.27l-.11,.43c.14-.35,.28-.67,.45-.87-.15,.28-.22,.27-.34,.44Z"/><polygon class="cls-2" points="3045.53 785.37 3046.07 785.18 3045.09 783.52 3045.53 785.37"/><path class="cls-2" d="M2926.18,163.16c.24-.18,.52-.56,.86-1.37-.16,.04-.48,.63-.86,1.37Z"/><path class="cls-2" d="M2936.81,114.62l2.28-6.7c-1.1,2.87-1.78,4.99-2.28,6.7Z"/><path class="cls-2" d="M2946.18,77.55c-.28-.56-.54-.76-.78-.94-.01,.03-.02,.05-.03,.07l.81,.87Z"/><path class="cls-2" d="M2907.89,677.82c.09,.5,.2,1,.33,1.43,.97,3.33,.43,1.05-.33-1.43Z"/><path class="cls-2" d="M2887.64,498.92c.41,1.91,.83,3.8,1.1,5.79,.15-3.21,.18-5.7-1.1-5.79Z"/><path class="cls-2" d="M2958.18,871.56s-.02,0-.04,0c.14,.41,.26,.76,.4,1.17l-.35-1.16Z"/><path class="cls-2" d="M2888.8,513.09c.41-3.22,.26-5.89-.06-8.38-.13,2.63-.31,5.74,.06,8.38Z"/><path class="cls-2" d="M3040.88,4.93l1.84,.09c-.03-.15,.08-.27,.22-.36l-2.06,.27Z"/><path class="cls-2" d="M3042.95,4.66l2.05-.27c-.94,0-1.76,.02-2.05,.27Z"/><path class="cls-2" d="M3049.3,3.83l-4.31,.57c1.49,0,3.33,.08,4.31-.57Z"/><path class="cls-2" d="M2990.23,3.89l-.58,.82c.32-.17,.52-.43,.58-.82Z"/><path class="cls-2" d="M2974.84,4.12c3.67,.19,9.21,1.74,14.33,1.23l.48-.65c-2.41,1.21-11.32-1.96-14.81-.58Z"/><path class="cls-2" d="M2944.44,40.72l3.44-12.42c-1.33,2.01-3.11,4.64-2.06-1.11-6.04,15.26,2.65-2.85-1.39,13.53Z"/><path class="cls-2" d="M2934.35,79.45c1.13-6.85-1.25-.2-1.65-.66-.19,4.47-.23,5.55,1.65,.66Z"/><path class="cls-2" d="M2885.84,364.81l-1.97-.9c-.22,5.37,.78,.13,1.97,.9Z"/><polygon class="cls-2" points="2892.02 420.7 2893.61 415.62 2891.89 413.04 2892.02 420.7"/><polygon class="cls-2" points="2875.89 452.65 2875.68 450.29 2876.12 459.28 2875.89 452.65"/><path class="cls-2" d="M2959.52,931.07l1.71-2.47c-1.81-3.19-4.72-2.83-1.71,2.47Z"/><polygon class="cls-2" points="3082.41 831.5 3084.74 835 3081.17 828.08 3082.41 831.5"/></g></g></g></g></svg>